<svg width="140" height="135" viewBox="0 0 140 135" fill="none" xmlns="http://www.w3.org/2000/svg">
<path opacity="0.6" d="M72.8948 100.83C94.3836 95.0717 107.136 72.9839 101.378 51.4952C95.6202 30.0064 73.5324 17.254 52.0436 23.0119C30.5549 28.7698 17.8025 50.8576 23.5604 72.3464C29.3183 93.8351 51.406 106.588 72.8948 100.83Z" fill="#EFEFEF"/>
<path d="M116.828 114.76C116.818 114.755 116.807 114.747 116.799 114.738L110.433 108.441C110.375 108.384 110.375 108.29 110.432 108.233C110.489 108.176 110.583 108.175 110.64 108.232L117.006 114.529C117.064 114.586 117.064 114.68 117.007 114.737C116.958 114.786 116.886 114.794 116.828 114.76Z" fill="#363E44"/>
<path d="M114.635 116.964C114.625 116.958 114.614 116.95 114.605 116.941L108.239 110.644C108.182 110.587 108.181 110.494 108.238 110.436C108.295 110.379 108.389 110.378 108.447 110.435L114.813 116.732C114.87 116.789 114.871 116.883 114.814 116.941C114.766 116.988 114.691 116.996 114.635 116.964Z" fill="#363E44"/>
<path d="M125.714 132.389C125.395 132.204 125.097 131.974 124.829 131.706L105.761 112.441C105.028 111.699 105.033 110.498 105.775 109.764L109.667 105.912C110.409 105.178 111.609 105.183 112.343 105.926L131.412 125.191C133.03 126.827 133.017 129.473 131.382 131.092L130.731 131.735C129.939 132.52 128.888 132.948 127.774 132.942C127.039 132.939 126.334 132.746 125.714 132.389ZM111.797 105.872C111.189 105.521 110.397 105.604 109.874 106.12L105.982 109.972C105.355 110.592 105.351 111.606 105.971 112.231L125.038 131.497C125.767 132.233 126.738 132.642 127.774 132.648C128.81 132.653 129.786 132.254 130.522 131.526L131.172 130.883C132.691 129.379 132.705 126.918 131.201 125.398L112.133 106.133C112.032 106.029 111.918 105.943 111.797 105.872Z" fill="#363E44"/>
<path d="M105.958 109.875C105.946 109.868 105.935 109.86 105.927 109.85L94.1661 97.9996C94.138 97.9715 94.1237 97.9343 94.1228 97.8946C94.1232 97.8556 94.138 97.8182 94.1661 97.7902L97.7824 94.2112C97.8407 94.1545 97.9332 94.1535 97.9912 94.2125L109.752 106.063C109.78 106.091 109.795 106.129 109.796 106.168C109.795 106.207 109.781 106.245 109.752 106.273L106.136 109.852C106.087 109.898 106.014 109.907 105.958 109.875ZM94.4789 97.8975L106.033 109.538L109.439 106.167L97.8851 94.526L94.4789 97.8975Z" fill="#363E44"/>
<path d="M39.9802 101.008C36.5017 99 33.2734 96.511 30.376 93.5727C21.9212 85.0019 17.3109 73.6517 17.3932 61.611C17.4748 49.5716 22.2417 38.2852 30.8145 29.8298C39.3852 21.375 50.7367 16.7654 62.7761 16.847C74.8168 16.9294 86.1032 21.6963 94.5573 30.2683C103.011 38.8403 107.623 50.1913 107.54 62.23C107.459 74.2694 102.692 85.5557 94.1189 94.0111C85.5468 102.465 74.1959 107.077 62.1572 106.994C54.2426 106.94 46.6537 104.861 39.9802 101.008ZM84.8056 23.0882C78.1756 19.2603 70.6367 17.1953 62.7743 17.1423C50.8135 17.0602 39.5364 21.6411 31.0199 30.0404C22.5054 38.4392 17.7707 49.6521 17.6885 61.6129C17.6063 73.5736 22.1873 84.8507 30.5873 93.366C33.4648 96.2826 36.6742 98.7572 40.1284 100.752C46.7585 104.579 54.2973 106.644 62.1598 106.697C74.1205 106.78 85.3976 102.199 93.9129 93.7985C102.428 85.3985 107.164 74.1863 107.245 62.2248C107.327 50.264 102.746 38.987 94.3462 30.4717C91.4692 27.5571 88.2612 25.0832 84.8056 23.0882Z" fill="#363E44"/>
<path d="M63.0765 102.462C59.4743 102.462 55.8485 101.977 52.2817 100.994C41.8705 98.1282 33.197 91.3781 27.8631 81.9892C22.5277 72.6002 21.1676 61.6949 24.0352 51.2837C26.9013 40.8725 33.6513 32.1989 43.0403 26.865C52.4292 21.5296 63.3346 20.1696 73.7458 23.0372C84.157 25.9018 92.829 32.6503 98.1645 42.0408C103.5 51.4297 104.86 62.3351 101.992 72.7463C99.1262 83.1574 92.3777 91.8295 82.9887 97.1649C76.8155 100.673 69.9887 102.462 63.0765 102.462ZM63.0263 21.8748C45.4108 21.8748 29.2157 33.5737 24.3199 51.3604C18.4446 72.6976 31.0242 94.8357 52.3599 100.71C62.6959 103.555 73.5216 102.205 82.8412 96.9097C92.1623 91.6127 98.8622 83.004 101.708 72.6681C104.553 62.3321 103.203 51.5064 97.9078 42.1868C92.6122 32.8657 84.0036 26.1643 73.6676 23.3189C70.1171 22.3424 66.5414 21.8748 63.0263 21.8748Z" fill="#363E44"/>
<path d="M61.2769 32.2363L34.0039 77.8226H88.5513L61.2769 32.2363Z" fill="white"/>
<path d="M90.7809 79.0453H36.2335C36.1804 79.0453 36.1317 79.0172 36.1051 78.97C36.0786 78.9243 36.0801 78.8668 36.1066 78.821L63.3796 33.2363C63.4327 33.1478 63.5802 33.1478 63.6333 33.2363L90.9077 78.8225C90.9343 78.8683 90.9358 78.9243 90.9092 78.9715C90.8827 79.0172 90.834 79.0453 90.7809 79.0453ZM36.4931 78.7502H90.5213L63.5079 33.5977L36.4931 78.7502Z" fill="#363E44"/>
<path d="M65.7912 67.1221H60.6033L59.4453 49.4727H66.9491L65.7912 67.1221Z" fill="#FF9602"/>
<path d="M65.7914 69.5547H60.6035V73.8251H65.7914V69.5547Z" fill="#FF9602"/>
</svg>
