<svg width="19" height="24" viewBox="0 0 19 24" fill="none" xmlns="http://www.w3.org/2000/svg">
<path d="M2.23529 23.5238C1.62059 23.5238 1.09418 23.2937 0.656059 22.8334C0.218686 22.3723 0 21.8183 0 21.1714V4.70476H2.23529V21.1714H14.5294V23.5238H2.23529ZM6.70588 18.819C6.09118 18.819 5.56514 18.5889 5.12776 18.1286C4.68965 17.6676 4.47059 17.1136 4.47059 16.4667V2.35238C4.47059 1.70548 4.68965 1.15149 5.12776 0.690424C5.56514 0.230141 6.09118 0 6.70588 0H16.7647C17.3794 0 17.9058 0.230141 18.3439 0.690424C18.7813 1.15149 19 1.70548 19 2.35238V16.4667C19 17.1136 18.7813 17.6676 18.3439 18.1286C17.9058 18.5889 17.3794 18.819 16.7647 18.819H6.70588Z" fill="white"/>
</svg>
