<svg width="440" height="127" viewBox="0 0 440 127" fill="none" xmlns="http://www.w3.org/2000/svg">
<rect x="418" y="113" width="22" height="13" fill="#6754B0"/>
<rect width="440" height="126" transform="matrix(1 0 0 -1 0 126)" fill="#D8DCDF"/>
<path d="M34.127 30.4609V35.3477C33.9453 35.5879 33.6611 35.8516 33.2744 36.1387C32.8936 36.4199 32.3867 36.6631 31.7539 36.8682C31.1211 37.0732 30.333 37.1758 29.3896 37.1758C28.5869 37.1758 27.8516 37.041 27.1836 36.7715C26.5156 36.4961 25.9385 36.0947 25.4521 35.5674C24.9717 35.04 24.5996 34.3984 24.3359 33.6426C24.0723 32.8809 23.9404 32.0137 23.9404 31.041V30.1533C23.9404 29.1865 24.0605 28.3252 24.3008 27.5693C24.5469 26.8076 24.8984 26.1631 25.3555 25.6357C25.8125 25.1084 26.3633 24.71 27.0078 24.4404C27.6582 24.165 28.3936 24.0273 29.2139 24.0273C30.2627 24.0273 31.1299 24.2031 31.8154 24.5547C32.5068 24.9004 33.04 25.3809 33.415 25.9961C33.79 26.6113 34.0273 27.3145 34.127 28.1055H31.9648C31.8945 27.6602 31.7568 27.2617 31.5518 26.9102C31.3525 26.5586 31.0654 26.2832 30.6904 26.084C30.3213 25.8789 29.8408 25.7764 29.249 25.7764C28.7393 25.7764 28.291 25.873 27.9043 26.0664C27.5176 26.2598 27.1953 26.5439 26.9375 26.9189C26.6855 27.2939 26.4951 27.751 26.3662 28.29C26.2373 28.8291 26.1729 29.4443 26.1729 30.1357V31.041C26.1729 31.7441 26.2461 32.3682 26.3926 32.9131C26.5449 33.458 26.7617 33.918 27.043 34.293C27.3301 34.668 27.6787 34.9521 28.0889 35.1455C28.499 35.333 28.9619 35.4268 29.4775 35.4268C29.9814 35.4268 30.3945 35.3857 30.7168 35.3037C31.0391 35.2158 31.2939 35.1133 31.4814 34.9961C31.6748 34.873 31.8242 34.7559 31.9297 34.6445V32.1045H29.2666V30.4609H34.127ZM40.5518 37.1758C39.8486 37.1758 39.2129 37.0615 38.6445 36.833C38.082 36.5986 37.6016 36.2734 37.2031 35.8574C36.8105 35.4414 36.5088 34.9521 36.2979 34.3896C36.0869 33.8271 35.9814 33.2207 35.9814 32.5703V32.2188C35.9814 31.4746 36.0898 30.8008 36.3066 30.1973C36.5234 29.5938 36.8252 29.0781 37.2119 28.6504C37.5986 28.2168 38.0557 27.8857 38.583 27.6572C39.1104 27.4287 39.6816 27.3145 40.2969 27.3145C40.9766 27.3145 41.5713 27.4287 42.0811 27.6572C42.5908 27.8857 43.0127 28.208 43.3467 28.624C43.6865 29.0342 43.9385 29.5234 44.1025 30.0918C44.2725 30.6602 44.3574 31.2871 44.3574 31.9727V32.8779H37.0098V31.3574H42.2656V31.1904C42.2539 30.8096 42.1777 30.4521 42.0371 30.1182C41.9023 29.7842 41.6943 29.5146 41.4131 29.3096C41.1318 29.1045 40.7568 29.002 40.2881 29.002C39.9365 29.002 39.623 29.0781 39.3477 29.2305C39.0781 29.377 38.8525 29.5908 38.6709 29.8721C38.4893 30.1533 38.3486 30.4932 38.249 30.8916C38.1553 31.2842 38.1084 31.7266 38.1084 32.2188V32.5703C38.1084 32.9863 38.1641 33.373 38.2754 33.7305C38.3926 34.082 38.5625 34.3896 38.7852 34.6533C39.0078 34.917 39.2773 35.125 39.5938 35.2773C39.9102 35.4238 40.2705 35.4971 40.6748 35.4971C41.1846 35.4971 41.6387 35.3945 42.0371 35.1895C42.4355 34.9844 42.7812 34.6943 43.0742 34.3193L44.1904 35.4004C43.9854 35.6992 43.7188 35.9863 43.3906 36.2617C43.0625 36.5312 42.6611 36.751 42.1865 36.9209C41.7178 37.0908 41.1729 37.1758 40.5518 37.1758ZM50.3691 27.4902V29.0371H45.0078V27.4902H50.3691ZM46.5547 25.1611H48.6729V34.3721C48.6729 34.665 48.7139 34.8906 48.7959 35.0488C48.8838 35.2012 49.0039 35.3037 49.1562 35.3564C49.3086 35.4092 49.4873 35.4355 49.6924 35.4355C49.8389 35.4355 49.9795 35.4268 50.1143 35.4092C50.249 35.3916 50.3574 35.374 50.4395 35.3564L50.4482 36.9736C50.2725 37.0264 50.0674 37.0732 49.833 37.1143C49.6045 37.1553 49.3408 37.1758 49.042 37.1758C48.5557 37.1758 48.125 37.0908 47.75 36.9209C47.375 36.7451 47.082 36.4609 46.8711 36.0684C46.6602 35.6758 46.5547 35.1543 46.5547 34.5039V25.1611ZM60.6787 37.1758C59.9756 37.1758 59.3398 37.0615 58.7715 36.833C58.209 36.5986 57.7285 36.2734 57.3301 35.8574C56.9375 35.4414 56.6357 34.9521 56.4248 34.3896C56.2139 33.8271 56.1084 33.2207 56.1084 32.5703V32.2188C56.1084 31.4746 56.2168 30.8008 56.4336 30.1973C56.6504 29.5938 56.9521 29.0781 57.3389 28.6504C57.7256 28.2168 58.1826 27.8857 58.71 27.6572C59.2373 27.4287 59.8086 27.3145 60.4238 27.3145C61.1035 27.3145 61.6982 27.4287 62.208 27.6572C62.7178 27.8857 63.1396 28.208 63.4736 28.624C63.8135 29.0342 64.0654 29.5234 64.2295 30.0918C64.3994 30.6602 64.4844 31.2871 64.4844 31.9727V32.8779H57.1367V31.3574H62.3926V31.1904C62.3809 30.8096 62.3047 30.4521 62.1641 30.1182C62.0293 29.7842 61.8213 29.5146 61.54 29.3096C61.2588 29.1045 60.8838 29.002 60.415 29.002C60.0635 29.002 59.75 29.0781 59.4746 29.2305C59.2051 29.377 58.9795 29.5908 58.7979 29.8721C58.6162 30.1533 58.4756 30.4932 58.376 30.8916C58.2822 31.2842 58.2354 31.7266 58.2354 32.2188V32.5703C58.2354 32.9863 58.291 33.373 58.4023 33.7305C58.5195 34.082 58.6895 34.3896 58.9121 34.6533C59.1348 34.917 59.4043 35.125 59.7207 35.2773C60.0371 35.4238 60.3975 35.4971 60.8018 35.4971C61.3115 35.4971 61.7656 35.3945 62.1641 35.1895C62.5625 34.9844 62.9082 34.6943 63.2012 34.3193L64.3174 35.4004C64.1123 35.6992 63.8457 35.9863 63.5176 36.2617C63.1895 36.5312 62.7881 36.751 62.3135 36.9209C61.8447 37.0908 61.2998 37.1758 60.6787 37.1758ZM67.7539 27.4902L69.5645 30.6455L71.4102 27.4902H73.7393L70.8564 32.1572L73.8535 37H71.5244L69.5908 33.7129L67.6572 37H65.3193L68.3076 32.1572L65.4336 27.4902H67.7539ZM79.0742 35.4883C79.4199 35.4883 79.7305 35.4209 80.0059 35.2861C80.2871 35.1455 80.5127 34.9521 80.6826 34.7061C80.8584 34.46 80.9551 34.1758 80.9727 33.8535H82.9678C82.9561 34.4688 82.7744 35.0283 82.4229 35.5322C82.0713 36.0361 81.6055 36.4375 81.0254 36.7363C80.4453 37.0293 79.8037 37.1758 79.1006 37.1758C78.374 37.1758 77.7412 37.0527 77.2021 36.8066C76.6631 36.5547 76.2148 36.209 75.8574 35.7695C75.5 35.3301 75.2305 34.8232 75.0488 34.249C74.873 33.6748 74.7852 33.0596 74.7852 32.4033V32.0957C74.7852 31.4395 74.873 30.8242 75.0488 30.25C75.2305 29.6699 75.5 29.1602 75.8574 28.7207C76.2148 28.2812 76.6631 27.9385 77.2021 27.6924C77.7412 27.4404 78.3711 27.3145 79.0918 27.3145C79.8535 27.3145 80.5215 27.4668 81.0957 27.7715C81.6699 28.0703 82.1211 28.4893 82.4492 29.0283C82.7832 29.5615 82.9561 30.1826 82.9678 30.8916H80.9727C80.9551 30.54 80.8672 30.2236 80.709 29.9424C80.5566 29.6553 80.3398 29.4268 80.0586 29.2568C79.7832 29.0869 79.4521 29.002 79.0654 29.002C78.6377 29.002 78.2832 29.0898 78.002 29.2656C77.7207 29.4355 77.501 29.6699 77.3428 29.9688C77.1846 30.2617 77.0703 30.5928 77 30.9619C76.9355 31.3252 76.9033 31.7031 76.9033 32.0957V32.4033C76.9033 32.7959 76.9355 33.1768 77 33.5459C77.0645 33.915 77.1758 34.2461 77.334 34.5391C77.498 34.8262 77.7207 35.0576 78.002 35.2334C78.2832 35.4033 78.6406 35.4883 79.0742 35.4883ZM86.8613 27.4902V37H84.7344V27.4902H86.8613ZM84.5938 24.9941C84.5938 24.6719 84.6992 24.4053 84.9102 24.1943C85.127 23.9775 85.4258 23.8691 85.8066 23.8691C86.1816 23.8691 86.4775 23.9775 86.6943 24.1943C86.9111 24.4053 87.0195 24.6719 87.0195 24.9941C87.0195 25.3105 86.9111 25.5742 86.6943 25.7852C86.4775 25.9961 86.1816 26.1016 85.8066 26.1016C85.4258 26.1016 85.127 25.9961 84.9102 25.7852C84.6992 25.5742 84.5938 25.3105 84.5938 24.9941ZM93.541 27.4902V29.0371H88.1797V27.4902H93.541ZM89.7266 25.1611H91.8447V34.3721C91.8447 34.665 91.8857 34.8906 91.9678 35.0488C92.0557 35.2012 92.1758 35.3037 92.3281 35.3564C92.4805 35.4092 92.6592 35.4355 92.8643 35.4355C93.0107 35.4355 93.1514 35.4268 93.2861 35.4092C93.4209 35.3916 93.5293 35.374 93.6113 35.3564L93.6201 36.9736C93.4443 37.0264 93.2393 37.0732 93.0049 37.1143C92.7764 37.1553 92.5127 37.1758 92.2139 37.1758C91.7275 37.1758 91.2969 37.0908 90.9219 36.9209C90.5469 36.7451 90.2539 36.4609 90.043 36.0684C89.832 35.6758 89.7266 35.1543 89.7266 34.5039V25.1611ZM97.4434 27.4902V37H95.3164V27.4902H97.4434ZM95.1758 24.9941C95.1758 24.6719 95.2812 24.4053 95.4922 24.1943C95.709 23.9775 96.0078 23.8691 96.3887 23.8691C96.7637 23.8691 97.0596 23.9775 97.2764 24.1943C97.4932 24.4053 97.6016 24.6719 97.6016 24.9941C97.6016 25.3105 97.4932 25.5742 97.2764 25.7852C97.0596 25.9961 96.7637 26.1016 96.3887 26.1016C96.0078 26.1016 95.709 25.9961 95.4922 25.7852C95.2812 25.5742 95.1758 25.3105 95.1758 24.9941ZM101.864 29.5205V37H99.7461V27.4902H101.741L101.864 29.5205ZM101.486 31.8936L100.801 31.8848C100.807 31.2109 100.9 30.5928 101.082 30.0303C101.27 29.4678 101.527 28.9844 101.855 28.5801C102.189 28.1758 102.588 27.8652 103.051 27.6484C103.514 27.4258 104.029 27.3145 104.598 27.3145C105.055 27.3145 105.468 27.3789 105.837 27.5078C106.212 27.6309 106.531 27.833 106.795 28.1143C107.064 28.3955 107.27 28.7617 107.41 29.2129C107.551 29.6582 107.621 30.2061 107.621 30.8564V37H105.494V30.8477C105.494 30.3906 105.427 30.0303 105.292 29.7666C105.163 29.4971 104.973 29.3066 104.721 29.1953C104.475 29.0781 104.167 29.0195 103.798 29.0195C103.435 29.0195 103.109 29.0957 102.822 29.248C102.535 29.4004 102.292 29.6084 102.093 29.8721C101.899 30.1357 101.75 30.4404 101.645 30.7861C101.539 31.1318 101.486 31.501 101.486 31.8936ZM115.874 27.4902H117.799V36.7363C117.799 37.5918 117.617 38.3184 117.254 38.916C116.891 39.5137 116.384 39.9678 115.733 40.2783C115.083 40.5947 114.33 40.7529 113.475 40.7529C113.111 40.7529 112.707 40.7002 112.262 40.5947C111.822 40.4893 111.395 40.3193 110.979 40.085C110.568 39.8564 110.226 39.5547 109.95 39.1797L110.943 37.9316C111.283 38.3359 111.658 38.6318 112.068 38.8193C112.479 39.0068 112.909 39.1006 113.36 39.1006C113.847 39.1006 114.26 39.0098 114.6 38.8281C114.945 38.6523 115.212 38.3916 115.399 38.0459C115.587 37.7002 115.681 37.2783 115.681 36.7803V29.6436L115.874 27.4902ZM109.414 32.3506V32.166C109.414 31.4453 109.502 30.7891 109.678 30.1973C109.854 29.5996 110.105 29.0869 110.434 28.6592C110.762 28.2256 111.16 27.8945 111.629 27.666C112.098 27.4316 112.628 27.3145 113.22 27.3145C113.835 27.3145 114.359 27.4258 114.793 27.6484C115.232 27.8711 115.599 28.1904 115.892 28.6064C116.185 29.0166 116.413 29.5088 116.577 30.083C116.747 30.6514 116.873 31.2842 116.955 31.9814V32.5703C116.879 33.25 116.75 33.8711 116.568 34.4336C116.387 34.9961 116.146 35.4824 115.848 35.8926C115.549 36.3027 115.18 36.6191 114.74 36.8418C114.307 37.0645 113.794 37.1758 113.202 37.1758C112.622 37.1758 112.098 37.0557 111.629 36.8154C111.166 36.5752 110.768 36.2383 110.434 35.8047C110.105 35.3711 109.854 34.8613 109.678 34.2754C109.502 33.6836 109.414 33.042 109.414 32.3506ZM111.532 32.166V32.3506C111.532 32.7842 111.573 33.1885 111.655 33.5635C111.743 33.9385 111.875 34.2695 112.051 34.5566C112.232 34.8379 112.461 35.0605 112.736 35.2246C113.018 35.3828 113.349 35.4619 113.729 35.4619C114.228 35.4619 114.635 35.3564 114.951 35.1455C115.273 34.9346 115.52 34.6504 115.689 34.293C115.865 33.9297 115.988 33.5254 116.059 33.0801V31.4893C116.023 31.1436 115.95 30.8213 115.839 30.5225C115.733 30.2236 115.59 29.9629 115.408 29.7402C115.227 29.5117 114.998 29.3359 114.723 29.2129C114.447 29.084 114.122 29.0195 113.747 29.0195C113.366 29.0195 113.035 29.1016 112.754 29.2656C112.473 29.4297 112.241 29.6553 112.06 29.9424C111.884 30.2295 111.752 30.5635 111.664 30.9443C111.576 31.3252 111.532 31.7324 111.532 32.166ZM124.074 32.3506V32.1484C124.074 31.4629 124.174 30.8271 124.373 30.2412C124.572 29.6494 124.859 29.1367 125.234 28.7031C125.615 28.2637 126.078 27.9238 126.623 27.6836C127.174 27.4375 127.795 27.3145 128.486 27.3145C129.184 27.3145 129.805 27.4375 130.35 27.6836C130.9 27.9238 131.366 28.2637 131.747 28.7031C132.128 29.1367 132.418 29.6494 132.617 30.2412C132.816 30.8271 132.916 31.4629 132.916 32.1484V32.3506C132.916 33.0361 132.816 33.6719 132.617 34.2578C132.418 34.8438 132.128 35.3564 131.747 35.7959C131.366 36.2295 130.903 36.5693 130.358 36.8154C129.813 37.0557 129.195 37.1758 128.504 37.1758C127.807 37.1758 127.183 37.0557 126.632 36.8154C126.087 36.5693 125.624 36.2295 125.243 35.7959C124.862 35.3564 124.572 34.8438 124.373 34.2578C124.174 33.6719 124.074 33.0361 124.074 32.3506ZM126.192 32.1484V32.3506C126.192 32.7783 126.236 33.1826 126.324 33.5635C126.412 33.9443 126.55 34.2783 126.737 34.5654C126.925 34.8525 127.165 35.0781 127.458 35.2422C127.751 35.4062 128.1 35.4883 128.504 35.4883C128.896 35.4883 129.236 35.4062 129.523 35.2422C129.816 35.0781 130.057 34.8525 130.244 34.5654C130.432 34.2783 130.569 33.9443 130.657 33.5635C130.751 33.1826 130.798 32.7783 130.798 32.3506V32.1484C130.798 31.7266 130.751 31.3281 130.657 30.9531C130.569 30.5723 130.429 30.2354 130.235 29.9424C130.048 29.6494 129.808 29.4209 129.515 29.2568C129.228 29.0869 128.885 29.002 128.486 29.002C128.088 29.002 127.742 29.0869 127.449 29.2568C127.162 29.4209 126.925 29.6494 126.737 29.9424C126.55 30.2354 126.412 30.5723 126.324 30.9531C126.236 31.3281 126.192 31.7266 126.192 32.1484ZM137.557 37H135.438V26.5762C135.438 25.8672 135.57 25.2725 135.834 24.792C136.104 24.3057 136.487 23.9395 136.985 23.6934C137.483 23.4414 138.072 23.3154 138.752 23.3154C138.963 23.3154 139.171 23.3301 139.376 23.3594C139.581 23.3828 139.78 23.4209 139.974 23.4736L139.921 25.1084C139.804 25.0791 139.675 25.0586 139.534 25.0469C139.399 25.0352 139.253 25.0293 139.095 25.0293C138.772 25.0293 138.494 25.0908 138.26 25.2139C138.031 25.3311 137.855 25.5039 137.732 25.7324C137.615 25.9609 137.557 26.2422 137.557 26.5762V37ZM139.517 27.4902V29.0371H133.979V27.4902H139.517ZM143.92 37H141.802V26.5762C141.802 25.8672 141.934 25.2725 142.197 24.792C142.467 24.3057 142.851 23.9395 143.349 23.6934C143.847 23.4414 144.436 23.3154 145.115 23.3154C145.326 23.3154 145.534 23.3301 145.739 23.3594C145.944 23.3828 146.144 23.4209 146.337 23.4736L146.284 25.1084C146.167 25.0791 146.038 25.0586 145.897 25.0469C145.763 25.0352 145.616 25.0293 145.458 25.0293C145.136 25.0293 144.857 25.0908 144.623 25.2139C144.395 25.3311 144.219 25.5039 144.096 25.7324C143.979 25.9609 143.92 26.2422 143.92 26.5762V37ZM145.88 27.4902V29.0371H140.343V27.4902H145.88ZM151.61 37.1758C150.907 37.1758 150.271 37.0615 149.703 36.833C149.141 36.5986 148.66 36.2734 148.262 35.8574C147.869 35.4414 147.567 34.9521 147.356 34.3896C147.146 33.8271 147.04 33.2207 147.04 32.5703V32.2188C147.04 31.4746 147.148 30.8008 147.365 30.1973C147.582 29.5938 147.884 29.0781 148.271 28.6504C148.657 28.2168 149.114 27.8857 149.642 27.6572C150.169 27.4287 150.74 27.3145 151.355 27.3145C152.035 27.3145 152.63 27.4287 153.14 27.6572C153.649 27.8857 154.071 28.208 154.405 28.624C154.745 29.0342 154.997 29.5234 155.161 30.0918C155.331 30.6602 155.416 31.2871 155.416 31.9727V32.8779H148.068V31.3574H153.324V31.1904C153.312 30.8096 153.236 30.4521 153.096 30.1182C152.961 29.7842 152.753 29.5146 152.472 29.3096C152.19 29.1045 151.815 29.002 151.347 29.002C150.995 29.002 150.682 29.0781 150.406 29.2305C150.137 29.377 149.911 29.5908 149.729 29.8721C149.548 30.1533 149.407 30.4932 149.308 30.8916C149.214 31.2842 149.167 31.7266 149.167 32.2188V32.5703C149.167 32.9863 149.223 33.373 149.334 33.7305C149.451 34.082 149.621 34.3896 149.844 34.6533C150.066 34.917 150.336 35.125 150.652 35.2773C150.969 35.4238 151.329 35.4971 151.733 35.4971C152.243 35.4971 152.697 35.3945 153.096 35.1895C153.494 34.9844 153.84 34.6943 154.133 34.3193L155.249 35.4004C155.044 35.6992 154.777 35.9863 154.449 36.2617C154.121 36.5312 153.72 36.751 153.245 36.9209C152.776 37.0908 152.231 37.1758 151.61 37.1758ZM159.195 29.3008V37H157.077V27.4902H159.099L159.195 29.3008ZM162.104 27.4287L162.087 29.3975C161.958 29.374 161.817 29.3564 161.665 29.3447C161.519 29.333 161.372 29.3271 161.226 29.3271C160.862 29.3271 160.543 29.3799 160.268 29.4854C159.992 29.585 159.761 29.7314 159.573 29.9248C159.392 30.1123 159.251 30.3408 159.151 30.6104C159.052 30.8799 158.993 31.1816 158.976 31.5156L158.492 31.5508C158.492 30.9531 158.551 30.3994 158.668 29.8896C158.785 29.3799 158.961 28.9316 159.195 28.5449C159.436 28.1582 159.734 27.8564 160.092 27.6396C160.455 27.4229 160.874 27.3145 161.349 27.3145C161.478 27.3145 161.615 27.3262 161.762 27.3496C161.914 27.373 162.028 27.3994 162.104 27.4287ZM168.767 34.4248C168.767 34.2139 168.714 34.0234 168.608 33.8535C168.503 33.6777 168.301 33.5195 168.002 33.3789C167.709 33.2383 167.275 33.1094 166.701 32.9922C166.197 32.8809 165.734 32.749 165.312 32.5967C164.896 32.4385 164.539 32.248 164.24 32.0254C163.941 31.8027 163.71 31.5391 163.546 31.2344C163.382 30.9297 163.3 30.5781 163.3 30.1797C163.3 29.793 163.385 29.4268 163.555 29.0811C163.725 28.7354 163.968 28.4307 164.284 28.167C164.601 27.9033 164.984 27.6953 165.436 27.543C165.893 27.3906 166.402 27.3145 166.965 27.3145C167.762 27.3145 168.444 27.4492 169.013 27.7188C169.587 27.9824 170.026 28.3428 170.331 28.7998C170.636 29.251 170.788 29.7607 170.788 30.3291H168.67C168.67 30.0771 168.605 29.8428 168.477 29.626C168.354 29.4033 168.166 29.2246 167.914 29.0898C167.662 28.9492 167.346 28.8789 166.965 28.8789C166.602 28.8789 166.3 28.9375 166.06 29.0547C165.825 29.166 165.649 29.3125 165.532 29.4941C165.421 29.6758 165.365 29.875 165.365 30.0918C165.365 30.25 165.395 30.3936 165.453 30.5225C165.518 30.6455 165.623 30.7598 165.77 30.8652C165.916 30.9648 166.115 31.0586 166.367 31.1465C166.625 31.2344 166.947 31.3193 167.334 31.4014C168.061 31.5537 168.685 31.75 169.206 31.9902C169.733 32.2246 170.138 32.5293 170.419 32.9043C170.7 33.2734 170.841 33.7422 170.841 34.3105C170.841 34.7324 170.75 35.1191 170.568 35.4707C170.393 35.8164 170.135 36.1182 169.795 36.376C169.455 36.6279 169.048 36.8242 168.573 36.9648C168.104 37.1055 167.577 37.1758 166.991 37.1758C166.13 37.1758 165.4 37.0234 164.803 36.7188C164.205 36.4082 163.751 36.0127 163.44 35.5322C163.136 35.0459 162.983 34.542 162.983 34.0205H165.031C165.055 34.4131 165.163 34.7266 165.356 34.9609C165.556 35.1895 165.802 35.3564 166.095 35.4619C166.394 35.5615 166.701 35.6113 167.018 35.6113C167.398 35.6113 167.718 35.5615 167.976 35.4619C168.233 35.3564 168.43 35.2158 168.564 35.04C168.699 34.8584 168.767 34.6533 168.767 34.4248ZM175.139 24.2031L174.928 33.2295H173.117L172.897 24.2031H175.139ZM172.836 35.998C172.836 35.6758 172.941 35.4062 173.152 35.1895C173.369 34.9668 173.668 34.8555 174.049 34.8555C174.424 34.8555 174.72 34.9668 174.937 35.1895C175.153 35.4062 175.262 35.6758 175.262 35.998C175.262 36.3086 175.153 36.5752 174.937 36.7979C174.72 37.0146 174.424 37.123 174.049 37.123C173.668 37.123 173.369 37.0146 173.152 36.7979C172.941 36.5752 172.836 36.3086 172.836 35.998Z" fill="black"/>
<path d="M30.3828 57.125C30.3828 56.8594 30.3411 56.625 30.2578 56.4219C30.1797 56.2135 30.0391 56.026 29.8359 55.8594C29.638 55.6927 29.362 55.5339 29.0078 55.3828C28.6589 55.2318 28.2161 55.0781 27.6797 54.9219C27.1172 54.7552 26.6094 54.5703 26.1562 54.3672C25.7031 54.1589 25.3151 53.9219 24.9922 53.6562C24.6693 53.3906 24.4219 53.0859 24.25 52.7422C24.0781 52.3984 23.9922 52.0052 23.9922 51.5625C23.9922 51.1198 24.0833 50.7109 24.2656 50.3359C24.4479 49.9609 24.7083 49.6354 25.0469 49.3594C25.3906 49.0781 25.7995 48.8594 26.2734 48.7031C26.7474 48.5469 27.276 48.4688 27.8594 48.4688C28.7135 48.4688 29.4375 48.6328 30.0312 48.9609C30.6302 49.2839 31.0859 49.7083 31.3984 50.2344C31.7109 50.7552 31.8672 51.3125 31.8672 51.9062H30.3672C30.3672 51.4792 30.276 51.1016 30.0938 50.7734C29.9115 50.4401 29.6354 50.1797 29.2656 49.9922C28.8958 49.7995 28.4271 49.7031 27.8594 49.7031C27.3229 49.7031 26.8802 49.7839 26.5312 49.9453C26.1823 50.1068 25.9219 50.3255 25.75 50.6016C25.5833 50.8776 25.5 51.1927 25.5 51.5469C25.5 51.7865 25.5495 52.0052 25.6484 52.2031C25.7526 52.3958 25.9115 52.5755 26.125 52.7422C26.3438 52.9089 26.6198 53.0625 26.9531 53.2031C27.2917 53.3438 27.6953 53.4792 28.1641 53.6094C28.8099 53.7917 29.3672 53.9948 29.8359 54.2188C30.3047 54.4427 30.6901 54.6953 30.9922 54.9766C31.2995 55.2526 31.526 55.5677 31.6719 55.9219C31.8229 56.2708 31.8984 56.6667 31.8984 57.1094C31.8984 57.5729 31.8047 57.9922 31.6172 58.3672C31.4297 58.7422 31.1615 59.0625 30.8125 59.3281C30.4635 59.5938 30.0443 59.7995 29.5547 59.9453C29.0703 60.0859 28.5286 60.1562 27.9297 60.1562C27.4036 60.1562 26.8854 60.0833 26.375 59.9375C25.8698 59.7917 25.4089 59.5729 24.9922 59.2812C24.5807 58.9896 24.25 58.6302 24 58.2031C23.7552 57.7708 23.6328 57.2708 23.6328 56.7031H25.1328C25.1328 57.0938 25.2083 57.4297 25.3594 57.7109C25.5104 57.987 25.7161 58.2161 25.9766 58.3984C26.2422 58.5807 26.5417 58.7161 26.875 58.8047C27.2135 58.888 27.5651 58.9297 27.9297 58.9297C28.4557 58.9297 28.901 58.8568 29.2656 58.7109C29.6302 58.5651 29.9062 58.3568 30.0938 58.0859C30.2865 57.8151 30.3828 57.4948 30.3828 57.125ZM38.5859 58.5547V54.2031C38.5859 53.8698 38.5182 53.5807 38.3828 53.3359C38.2526 53.0859 38.0547 52.8932 37.7891 52.7578C37.5234 52.6224 37.1953 52.5547 36.8047 52.5547C36.4401 52.5547 36.1198 52.6172 35.8438 52.7422C35.5729 52.8672 35.3594 53.0312 35.2031 53.2344C35.0521 53.4375 34.9766 53.6562 34.9766 53.8906H33.5312C33.5312 53.5885 33.6094 53.2891 33.7656 52.9922C33.9219 52.6953 34.1458 52.4271 34.4375 52.1875C34.7344 51.9427 35.0885 51.75 35.5 51.6094C35.9167 51.4635 36.3802 51.3906 36.8906 51.3906C37.5052 51.3906 38.0469 51.4948 38.5156 51.7031C38.9896 51.9115 39.3594 52.2266 39.625 52.6484C39.8958 53.0651 40.0312 53.5885 40.0312 54.2188V58.1562C40.0312 58.4375 40.0547 58.737 40.1016 59.0547C40.1536 59.3724 40.2292 59.6458 40.3281 59.875V60H38.8203C38.7474 59.8333 38.6901 59.612 38.6484 59.3359C38.6068 59.0547 38.5859 58.7943 38.5859 58.5547ZM38.8359 54.875L38.8516 55.8906H37.3906C36.9792 55.8906 36.612 55.9245 36.2891 55.9922C35.9661 56.0547 35.6953 56.151 35.4766 56.2812C35.2578 56.4115 35.0911 56.5755 34.9766 56.7734C34.862 56.9661 34.8047 57.1927 34.8047 57.4531C34.8047 57.7188 34.8646 57.9609 34.9844 58.1797C35.1042 58.3984 35.2839 58.5729 35.5234 58.7031C35.7682 58.8281 36.0677 58.8906 36.4219 58.8906C36.8646 58.8906 37.2552 58.7969 37.5938 58.6094C37.9323 58.4219 38.2005 58.1927 38.3984 57.9219C38.6016 57.651 38.7109 57.388 38.7266 57.1328L39.3438 57.8281C39.3073 58.0469 39.2083 58.2891 39.0469 58.5547C38.8854 58.8203 38.6693 59.0755 38.3984 59.3203C38.1328 59.5599 37.8151 59.7604 37.4453 59.9219C37.0807 60.0781 36.6693 60.1562 36.2109 60.1562C35.638 60.1562 35.1354 60.0443 34.7031 59.8203C34.276 59.5964 33.9427 59.2969 33.7031 58.9219C33.4688 58.5417 33.3516 58.1172 33.3516 57.6484C33.3516 57.1953 33.4401 56.7969 33.6172 56.4531C33.7943 56.1042 34.0495 55.8151 34.3828 55.5859C34.7161 55.3516 35.1172 55.1745 35.5859 55.0547C36.0547 54.9349 36.5781 54.875 37.1562 54.875H38.8359ZM44.875 58.6953L47.1875 51.5469H48.6641L45.625 60H44.6562L44.875 58.6953ZM42.9453 51.5469L45.3281 58.7344L45.4922 60H44.5234L41.4609 51.5469H42.9453ZM53.5625 60.1562C52.974 60.1562 52.4401 60.0573 51.9609 59.8594C51.487 59.6562 51.0781 59.3724 50.7344 59.0078C50.3958 58.6432 50.1354 58.2109 49.9531 57.7109C49.7708 57.2109 49.6797 56.6641 49.6797 56.0703V55.7422C49.6797 55.0547 49.7812 54.4427 49.9844 53.9062C50.1875 53.3646 50.4635 52.9062 50.8125 52.5312C51.1615 52.1562 51.5573 51.8724 52 51.6797C52.4427 51.487 52.901 51.3906 53.375 51.3906C53.9792 51.3906 54.5 51.4948 54.9375 51.7031C55.3802 51.9115 55.7422 52.2031 56.0234 52.5781C56.3047 52.9479 56.513 53.3854 56.6484 53.8906C56.7839 54.3906 56.8516 54.9375 56.8516 55.5312V56.1797H50.5391V55H55.4062V54.8906C55.3854 54.5156 55.3073 54.151 55.1719 53.7969C55.0417 53.4427 54.8333 53.151 54.5469 52.9219C54.2604 52.6927 53.8698 52.5781 53.375 52.5781C53.0469 52.5781 52.7448 52.6484 52.4688 52.7891C52.1927 52.9245 51.9557 53.1276 51.7578 53.3984C51.5599 53.6693 51.4062 54 51.2969 54.3906C51.1875 54.7812 51.1328 55.2318 51.1328 55.7422V56.0703C51.1328 56.4714 51.1875 56.849 51.2969 57.2031C51.4115 57.5521 51.5755 57.8594 51.7891 58.125C52.0078 58.3906 52.2708 58.599 52.5781 58.75C52.8906 58.901 53.2448 58.9766 53.6406 58.9766C54.151 58.9766 54.5833 58.8724 54.9375 58.6641C55.2917 58.4557 55.6016 58.1771 55.8672 57.8281L56.7422 58.5234C56.5599 58.7995 56.3281 59.0625 56.0469 59.3125C55.7656 59.5625 55.4193 59.7656 55.0078 59.9219C54.6016 60.0781 54.1198 60.1562 53.5625 60.1562ZM63.9453 53.2266V60H62.4922V51.5469H63.8672L63.9453 53.2266ZM63.6484 55.4531L62.9766 55.4297C62.9818 54.8516 63.0573 54.3177 63.2031 53.8281C63.349 53.3333 63.5651 52.9036 63.8516 52.5391C64.138 52.1745 64.4948 51.8932 64.9219 51.6953C65.349 51.4922 65.8438 51.3906 66.4062 51.3906C66.8021 51.3906 67.1667 51.4479 67.5 51.5625C67.8333 51.6719 68.1224 51.8464 68.3672 52.0859C68.612 52.3255 68.8021 52.6328 68.9375 53.0078C69.0729 53.3828 69.1406 53.8359 69.1406 54.3672V60H67.6953V54.4375C67.6953 53.9948 67.6198 53.6406 67.4688 53.375C67.3229 53.1094 67.1146 52.9167 66.8438 52.7969C66.5729 52.6719 66.2552 52.6094 65.8906 52.6094C65.4635 52.6094 65.1068 52.6849 64.8203 52.8359C64.5339 52.987 64.3047 53.1953 64.1328 53.4609C63.9609 53.7266 63.8359 54.0312 63.7578 54.375C63.6849 54.7135 63.6484 55.0729 63.6484 55.4531ZM69.125 54.6562L68.1562 54.9531C68.1615 54.4896 68.237 54.0443 68.3828 53.6172C68.5339 53.1901 68.75 52.8099 69.0312 52.4766C69.3177 52.1432 69.6693 51.8802 70.0859 51.6875C70.5026 51.4896 70.9792 51.3906 71.5156 51.3906C71.9688 51.3906 72.3698 51.4505 72.7188 51.5703C73.0729 51.6901 73.3698 51.875 73.6094 52.125C73.8542 52.3698 74.0391 52.6849 74.1641 53.0703C74.2891 53.4557 74.3516 53.9141 74.3516 54.4453V60H72.8984V54.4297C72.8984 53.9557 72.8229 53.5885 72.6719 53.3281C72.526 53.0625 72.3177 52.8776 72.0469 52.7734C71.7812 52.6641 71.4635 52.6094 71.0938 52.6094C70.776 52.6094 70.4948 52.6641 70.25 52.7734C70.0052 52.8828 69.7995 53.0339 69.6328 53.2266C69.4661 53.4141 69.3385 53.6302 69.25 53.875C69.1667 54.1198 69.125 54.3802 69.125 54.6562ZM76.1562 55.8672V55.6875C76.1562 55.0781 76.2448 54.513 76.4219 53.9922C76.599 53.4661 76.8542 53.0104 77.1875 52.625C77.5208 52.2344 77.9245 51.9323 78.3984 51.7188C78.8724 51.5 79.4036 51.3906 79.9922 51.3906C80.5859 51.3906 81.1198 51.5 81.5938 51.7188C82.0729 51.9323 82.4792 52.2344 82.8125 52.625C83.151 53.0104 83.4089 53.4661 83.5859 53.9922C83.763 54.513 83.8516 55.0781 83.8516 55.6875V55.8672C83.8516 56.4766 83.763 57.0417 83.5859 57.5625C83.4089 58.0833 83.151 58.5391 82.8125 58.9297C82.4792 59.3151 82.0755 59.6172 81.6016 59.8359C81.1328 60.0495 80.6016 60.1562 80.0078 60.1562C79.4141 60.1562 78.8802 60.0495 78.4062 59.8359C77.9323 59.6172 77.526 59.3151 77.1875 58.9297C76.8542 58.5391 76.599 58.0833 76.4219 57.5625C76.2448 57.0417 76.1562 56.4766 76.1562 55.8672ZM77.6016 55.6875V55.8672C77.6016 56.2891 77.651 56.6875 77.75 57.0625C77.849 57.4323 77.9974 57.7604 78.1953 58.0469C78.3984 58.3333 78.651 58.5599 78.9531 58.7266C79.2552 58.888 79.6068 58.9688 80.0078 58.9688C80.4036 58.9688 80.75 58.888 81.0469 58.7266C81.349 58.5599 81.599 58.3333 81.7969 58.0469C81.9948 57.7604 82.1432 57.4323 82.2422 57.0625C82.3464 56.6875 82.3984 56.2891 82.3984 55.8672V55.6875C82.3984 55.2708 82.3464 54.8776 82.2422 54.5078C82.1432 54.1328 81.9922 53.8021 81.7891 53.5156C81.5911 53.224 81.3411 52.9948 81.0391 52.8281C80.7422 52.6615 80.3932 52.5781 79.9922 52.5781C79.5964 52.5781 79.2474 52.6615 78.9453 52.8281C78.6484 52.9948 78.3984 53.224 78.1953 53.5156C77.9974 53.8021 77.849 54.1328 77.75 54.5078C77.651 54.8776 77.6016 55.2708 77.6016 55.6875ZM87.1094 52.875V60H85.6641V51.5469H87.0703L87.1094 52.875ZM89.75 51.5L89.7422 52.8438C89.6224 52.8177 89.5078 52.8021 89.3984 52.7969C89.2943 52.7865 89.1745 52.7812 89.0391 52.7812C88.7057 52.7812 88.4115 52.8333 88.1562 52.9375C87.901 53.0417 87.6849 53.1875 87.5078 53.375C87.3307 53.5625 87.1901 53.7865 87.0859 54.0469C86.987 54.3021 86.9219 54.5833 86.8906 54.8906L86.4844 55.125C86.4844 54.6146 86.5339 54.1354 86.6328 53.6875C86.737 53.2396 86.8958 52.8438 87.1094 52.5C87.3229 52.151 87.5938 51.8802 87.9219 51.6875C88.2552 51.4896 88.651 51.3906 89.1094 51.3906C89.2135 51.3906 89.3333 51.4036 89.4688 51.4297C89.6042 51.4505 89.6979 51.474 89.75 51.5ZM94.5938 60.1562C94.0052 60.1562 93.4714 60.0573 92.9922 59.8594C92.5182 59.6562 92.1094 59.3724 91.7656 59.0078C91.4271 58.6432 91.1667 58.2109 90.9844 57.7109C90.8021 57.2109 90.7109 56.6641 90.7109 56.0703V55.7422C90.7109 55.0547 90.8125 54.4427 91.0156 53.9062C91.2188 53.3646 91.4948 52.9062 91.8438 52.5312C92.1927 52.1562 92.5885 51.8724 93.0312 51.6797C93.474 51.487 93.9323 51.3906 94.4062 51.3906C95.0104 51.3906 95.5312 51.4948 95.9688 51.7031C96.4115 51.9115 96.7734 52.2031 97.0547 52.5781C97.3359 52.9479 97.5443 53.3854 97.6797 53.8906C97.8151 54.3906 97.8828 54.9375 97.8828 55.5312V56.1797H91.5703V55H96.4375V54.8906C96.4167 54.5156 96.3385 54.151 96.2031 53.7969C96.0729 53.4427 95.8646 53.151 95.5781 52.9219C95.2917 52.6927 94.901 52.5781 94.4062 52.5781C94.0781 52.5781 93.776 52.6484 93.5 52.7891C93.224 52.9245 92.987 53.1276 92.7891 53.3984C92.5911 53.6693 92.4375 54 92.3281 54.3906C92.2188 54.7812 92.1641 55.2318 92.1641 55.7422V56.0703C92.1641 56.4714 92.2188 56.849 92.3281 57.2031C92.4427 57.5521 92.6068 57.8594 92.8203 58.125C93.0391 58.3906 93.3021 58.599 93.6094 58.75C93.9219 58.901 94.276 58.9766 94.6719 58.9766C95.1823 58.9766 95.6146 58.8724 95.9688 58.6641C96.3229 58.4557 96.6328 58.1771 96.8984 57.8281L97.7734 58.5234C97.5911 58.7995 97.3594 59.0625 97.0781 59.3125C96.7969 59.5625 96.4505 59.7656 96.0391 59.9219C95.6328 60.0781 95.151 60.1562 94.5938 60.1562ZM103.156 55.8672V55.6875C103.156 55.0781 103.245 54.513 103.422 53.9922C103.599 53.4661 103.854 53.0104 104.188 52.625C104.521 52.2344 104.924 51.9323 105.398 51.7188C105.872 51.5 106.404 51.3906 106.992 51.3906C107.586 51.3906 108.12 51.5 108.594 51.7188C109.073 51.9323 109.479 52.2344 109.812 52.625C110.151 53.0104 110.409 53.4661 110.586 53.9922C110.763 54.513 110.852 55.0781 110.852 55.6875V55.8672C110.852 56.4766 110.763 57.0417 110.586 57.5625C110.409 58.0833 110.151 58.5391 109.812 58.9297C109.479 59.3151 109.076 59.6172 108.602 59.8359C108.133 60.0495 107.602 60.1562 107.008 60.1562C106.414 60.1562 105.88 60.0495 105.406 59.8359C104.932 59.6172 104.526 59.3151 104.188 58.9297C103.854 58.5391 103.599 58.0833 103.422 57.5625C103.245 57.0417 103.156 56.4766 103.156 55.8672ZM104.602 55.6875V55.8672C104.602 56.2891 104.651 56.6875 104.75 57.0625C104.849 57.4323 104.997 57.7604 105.195 58.0469C105.398 58.3333 105.651 58.5599 105.953 58.7266C106.255 58.888 106.607 58.9688 107.008 58.9688C107.404 58.9688 107.75 58.888 108.047 58.7266C108.349 58.5599 108.599 58.3333 108.797 58.0469C108.995 57.7604 109.143 57.4323 109.242 57.0625C109.346 56.6875 109.398 56.2891 109.398 55.8672V55.6875C109.398 55.2708 109.346 54.8776 109.242 54.5078C109.143 54.1328 108.992 53.8021 108.789 53.5156C108.591 53.224 108.341 52.9948 108.039 52.8281C107.742 52.6615 107.393 52.5781 106.992 52.5781C106.596 52.5781 106.247 52.6615 105.945 52.8281C105.648 52.9948 105.398 53.224 105.195 53.5156C104.997 53.8021 104.849 54.1328 104.75 54.5078C104.651 54.8776 104.602 55.2708 104.602 55.6875ZM114.109 53.3516V60H112.664V51.5469H114.031L114.109 53.3516ZM113.766 55.4531L113.164 55.4297C113.169 54.8516 113.255 54.3177 113.422 53.8281C113.589 53.3333 113.823 52.9036 114.125 52.5391C114.427 52.1745 114.786 51.8932 115.203 51.6953C115.625 51.4922 116.091 51.3906 116.602 51.3906C117.018 51.3906 117.393 51.4479 117.727 51.5625C118.06 51.6719 118.344 51.849 118.578 52.0938C118.818 52.3385 119 52.6562 119.125 53.0469C119.25 53.4323 119.312 53.9036 119.312 54.4609V60H117.859V54.4453C117.859 54.0026 117.794 53.6484 117.664 53.3828C117.534 53.112 117.344 52.9167 117.094 52.7969C116.844 52.6719 116.536 52.6094 116.172 52.6094C115.812 52.6094 115.484 52.6849 115.188 52.8359C114.896 52.987 114.643 53.1953 114.43 53.4609C114.221 53.7266 114.057 54.0312 113.938 54.375C113.823 54.7135 113.766 55.0729 113.766 55.4531ZM128.984 60.1562C128.396 60.1562 127.862 60.0573 127.383 59.8594C126.909 59.6562 126.5 59.3724 126.156 59.0078C125.818 58.6432 125.557 58.2109 125.375 57.7109C125.193 57.2109 125.102 56.6641 125.102 56.0703V55.7422C125.102 55.0547 125.203 54.4427 125.406 53.9062C125.609 53.3646 125.885 52.9062 126.234 52.5312C126.583 52.1562 126.979 51.8724 127.422 51.6797C127.865 51.487 128.323 51.3906 128.797 51.3906C129.401 51.3906 129.922 51.4948 130.359 51.7031C130.802 51.9115 131.164 52.2031 131.445 52.5781C131.727 52.9479 131.935 53.3854 132.07 53.8906C132.206 54.3906 132.273 54.9375 132.273 55.5312V56.1797H125.961V55H130.828V54.8906C130.807 54.5156 130.729 54.151 130.594 53.7969C130.464 53.4427 130.255 53.151 129.969 52.9219C129.682 52.6927 129.292 52.5781 128.797 52.5781C128.469 52.5781 128.167 52.6484 127.891 52.7891C127.615 52.9245 127.378 53.1276 127.18 53.3984C126.982 53.6693 126.828 54 126.719 54.3906C126.609 54.7812 126.555 55.2318 126.555 55.7422V56.0703C126.555 56.4714 126.609 56.849 126.719 57.2031C126.833 57.5521 126.997 57.8594 127.211 58.125C127.43 58.3906 127.693 58.599 128 58.75C128.312 58.901 128.667 58.9766 129.062 58.9766C129.573 58.9766 130.005 58.8724 130.359 58.6641C130.714 58.4557 131.023 58.1771 131.289 57.8281L132.164 58.5234C131.982 58.7995 131.75 59.0625 131.469 59.3125C131.188 59.5625 130.841 59.7656 130.43 59.9219C130.023 60.0781 129.542 60.1562 128.984 60.1562ZM136.531 58.6953L138.844 51.5469H140.32L137.281 60H136.312L136.531 58.6953ZM134.602 51.5469L136.984 58.7344L137.148 60H136.18L133.117 51.5469H134.602ZM145.219 60.1562C144.63 60.1562 144.096 60.0573 143.617 59.8594C143.143 59.6562 142.734 59.3724 142.391 59.0078C142.052 58.6432 141.792 58.2109 141.609 57.7109C141.427 57.2109 141.336 56.6641 141.336 56.0703V55.7422C141.336 55.0547 141.438 54.4427 141.641 53.9062C141.844 53.3646 142.12 52.9062 142.469 52.5312C142.818 52.1562 143.214 51.8724 143.656 51.6797C144.099 51.487 144.557 51.3906 145.031 51.3906C145.635 51.3906 146.156 51.4948 146.594 51.7031C147.036 51.9115 147.398 52.2031 147.68 52.5781C147.961 52.9479 148.169 53.3854 148.305 53.8906C148.44 54.3906 148.508 54.9375 148.508 55.5312V56.1797H142.195V55H147.062V54.8906C147.042 54.5156 146.964 54.151 146.828 53.7969C146.698 53.4427 146.49 53.151 146.203 52.9219C145.917 52.6927 145.526 52.5781 145.031 52.5781C144.703 52.5781 144.401 52.6484 144.125 52.7891C143.849 52.9245 143.612 53.1276 143.414 53.3984C143.216 53.6693 143.062 54 142.953 54.3906C142.844 54.7812 142.789 55.2318 142.789 55.7422V56.0703C142.789 56.4714 142.844 56.849 142.953 57.2031C143.068 57.5521 143.232 57.8594 143.445 58.125C143.664 58.3906 143.927 58.599 144.234 58.75C144.547 58.901 144.901 58.9766 145.297 58.9766C145.807 58.9766 146.24 58.8724 146.594 58.6641C146.948 58.4557 147.258 58.1771 147.523 57.8281L148.398 58.5234C148.216 58.7995 147.984 59.0625 147.703 59.3125C147.422 59.5625 147.076 59.7656 146.664 59.9219C146.258 60.0781 145.776 60.1562 145.219 60.1562ZM151.641 52.875V60H150.195V51.5469H151.602L151.641 52.875ZM154.281 51.5L154.273 52.8438C154.154 52.8177 154.039 52.8021 153.93 52.7969C153.826 52.7865 153.706 52.7812 153.57 52.7812C153.237 52.7812 152.943 52.8333 152.688 52.9375C152.432 53.0417 152.216 53.1875 152.039 53.375C151.862 53.5625 151.721 53.7865 151.617 54.0469C151.518 54.3021 151.453 54.5833 151.422 54.8906L151.016 55.125C151.016 54.6146 151.065 54.1354 151.164 53.6875C151.268 53.2396 151.427 52.8438 151.641 52.5C151.854 52.151 152.125 51.8802 152.453 51.6875C152.786 51.4896 153.182 51.3906 153.641 51.3906C153.745 51.3906 153.865 51.4036 154 51.4297C154.135 51.4505 154.229 51.474 154.281 51.5ZM157.992 59.125L160.344 51.5469H161.891L158.5 61.3047C158.422 61.513 158.318 61.737 158.188 61.9766C158.062 62.2214 157.901 62.4531 157.703 62.6719C157.505 62.8906 157.266 63.0677 156.984 63.2031C156.708 63.3438 156.378 63.4141 155.992 63.4141C155.878 63.4141 155.732 63.3984 155.555 63.3672C155.378 63.3359 155.253 63.3099 155.18 63.2891L155.172 62.1172C155.214 62.1224 155.279 62.1276 155.367 62.1328C155.461 62.1432 155.526 62.1484 155.562 62.1484C155.891 62.1484 156.169 62.1042 156.398 62.0156C156.628 61.9323 156.82 61.7891 156.977 61.5859C157.138 61.388 157.276 61.1146 157.391 60.7656L157.992 59.125ZM156.266 51.5469L158.461 58.1094L158.836 59.6328L157.797 60.1641L154.688 51.5469H156.266ZM166.781 55.8672V55.6875C166.781 55.0781 166.87 54.513 167.047 53.9922C167.224 53.4661 167.479 53.0104 167.812 52.625C168.146 52.2344 168.549 51.9323 169.023 51.7188C169.497 51.5 170.029 51.3906 170.617 51.3906C171.211 51.3906 171.745 51.5 172.219 51.7188C172.698 51.9323 173.104 52.2344 173.438 52.625C173.776 53.0104 174.034 53.4661 174.211 53.9922C174.388 54.513 174.477 55.0781 174.477 55.6875V55.8672C174.477 56.4766 174.388 57.0417 174.211 57.5625C174.034 58.0833 173.776 58.5391 173.438 58.9297C173.104 59.3151 172.701 59.6172 172.227 59.8359C171.758 60.0495 171.227 60.1562 170.633 60.1562C170.039 60.1562 169.505 60.0495 169.031 59.8359C168.557 59.6172 168.151 59.3151 167.812 58.9297C167.479 58.5391 167.224 58.0833 167.047 57.5625C166.87 57.0417 166.781 56.4766 166.781 55.8672ZM168.227 55.6875V55.8672C168.227 56.2891 168.276 56.6875 168.375 57.0625C168.474 57.4323 168.622 57.7604 168.82 58.0469C169.023 58.3333 169.276 58.5599 169.578 58.7266C169.88 58.888 170.232 58.9688 170.633 58.9688C171.029 58.9688 171.375 58.888 171.672 58.7266C171.974 58.5599 172.224 58.3333 172.422 58.0469C172.62 57.7604 172.768 57.4323 172.867 57.0625C172.971 56.6875 173.023 56.2891 173.023 55.8672V55.6875C173.023 55.2708 172.971 54.8776 172.867 54.5078C172.768 54.1328 172.617 53.8021 172.414 53.5156C172.216 53.224 171.966 52.9948 171.664 52.8281C171.367 52.6615 171.018 52.5781 170.617 52.5781C170.221 52.5781 169.872 52.6615 169.57 52.8281C169.273 52.9948 169.023 53.224 168.82 53.5156C168.622 53.8021 168.474 54.1328 168.375 54.5078C168.276 54.8776 168.227 55.2708 168.227 55.6875ZM177.734 52.875V60H176.289V51.5469H177.695L177.734 52.875ZM180.375 51.5L180.367 52.8438C180.247 52.8177 180.133 52.8021 180.023 52.7969C179.919 52.7865 179.799 52.7812 179.664 52.7812C179.331 52.7812 179.036 52.8333 178.781 52.9375C178.526 53.0417 178.31 53.1875 178.133 53.375C177.956 53.5625 177.815 53.7865 177.711 54.0469C177.612 54.3021 177.547 54.5833 177.516 54.8906L177.109 55.125C177.109 54.6146 177.159 54.1354 177.258 53.6875C177.362 53.2396 177.521 52.8438 177.734 52.5C177.948 52.151 178.219 51.8802 178.547 51.6875C178.88 51.4896 179.276 51.3906 179.734 51.3906C179.839 51.3906 179.958 51.4036 180.094 51.4297C180.229 51.4505 180.323 51.474 180.375 51.5ZM187.039 58.3594V48H188.492V60H187.164L187.039 58.3594ZM181.352 55.8672V55.7031C181.352 55.0573 181.43 54.4714 181.586 53.9453C181.747 53.4141 181.974 52.9583 182.266 52.5781C182.562 52.1979 182.914 51.9062 183.32 51.7031C183.732 51.4948 184.19 51.3906 184.695 51.3906C185.227 51.3906 185.69 51.4844 186.086 51.6719C186.487 51.8542 186.826 52.1224 187.102 52.4766C187.383 52.8255 187.604 53.2474 187.766 53.7422C187.927 54.237 188.039 54.7969 188.102 55.4219V56.1406C188.044 56.7604 187.932 57.3177 187.766 57.8125C187.604 58.3073 187.383 58.7292 187.102 59.0781C186.826 59.4271 186.487 59.6953 186.086 59.8828C185.685 60.0651 185.216 60.1562 184.68 60.1562C184.185 60.1562 183.732 60.0495 183.32 59.8359C182.914 59.6224 182.562 59.3229 182.266 58.9375C181.974 58.5521 181.747 58.099 181.586 57.5781C181.43 57.0521 181.352 56.4818 181.352 55.8672ZM182.805 55.7031V55.8672C182.805 56.2891 182.846 56.6849 182.93 57.0547C183.018 57.4245 183.154 57.75 183.336 58.0312C183.518 58.3125 183.75 58.5339 184.031 58.6953C184.312 58.8516 184.648 58.9297 185.039 58.9297C185.518 58.9297 185.911 58.8281 186.219 58.625C186.531 58.4219 186.781 58.1536 186.969 57.8203C187.156 57.487 187.302 57.125 187.406 56.7344V54.8516C187.344 54.5651 187.253 54.2891 187.133 54.0234C187.018 53.7526 186.867 53.513 186.68 53.3047C186.497 53.0911 186.271 52.9219 186 52.7969C185.734 52.6719 185.419 52.6094 185.055 52.6094C184.659 52.6094 184.318 52.6927 184.031 52.8594C183.75 53.0208 183.518 53.2448 183.336 53.5312C183.154 53.8125 183.018 54.1406 182.93 54.5156C182.846 54.8854 182.805 55.2812 182.805 55.7031ZM194.25 60.1562C193.661 60.1562 193.128 60.0573 192.648 59.8594C192.174 59.6562 191.766 59.3724 191.422 59.0078C191.083 58.6432 190.823 58.2109 190.641 57.7109C190.458 57.2109 190.367 56.6641 190.367 56.0703V55.7422C190.367 55.0547 190.469 54.4427 190.672 53.9062C190.875 53.3646 191.151 52.9062 191.5 52.5312C191.849 52.1562 192.245 51.8724 192.688 51.6797C193.13 51.487 193.589 51.3906 194.062 51.3906C194.667 51.3906 195.188 51.4948 195.625 51.7031C196.068 51.9115 196.43 52.2031 196.711 52.5781C196.992 52.9479 197.201 53.3854 197.336 53.8906C197.471 54.3906 197.539 54.9375 197.539 55.5312V56.1797H191.227V55H196.094V54.8906C196.073 54.5156 195.995 54.151 195.859 53.7969C195.729 53.4427 195.521 53.151 195.234 52.9219C194.948 52.6927 194.557 52.5781 194.062 52.5781C193.734 52.5781 193.432 52.6484 193.156 52.7891C192.88 52.9245 192.643 53.1276 192.445 53.3984C192.247 53.6693 192.094 54 191.984 54.3906C191.875 54.7812 191.82 55.2318 191.82 55.7422V56.0703C191.82 56.4714 191.875 56.849 191.984 57.2031C192.099 57.5521 192.263 57.8594 192.477 58.125C192.695 58.3906 192.958 58.599 193.266 58.75C193.578 58.901 193.932 58.9766 194.328 58.9766C194.839 58.9766 195.271 58.8724 195.625 58.6641C195.979 58.4557 196.289 58.1771 196.555 57.8281L197.43 58.5234C197.247 58.7995 197.016 59.0625 196.734 59.3125C196.453 59.5625 196.107 59.7656 195.695 59.9219C195.289 60.0781 194.807 60.1562 194.25 60.1562ZM200.672 52.875V60H199.227V51.5469H200.633L200.672 52.875ZM203.312 51.5L203.305 52.8438C203.185 52.8177 203.07 52.8021 202.961 52.7969C202.857 52.7865 202.737 52.7812 202.602 52.7812C202.268 52.7812 201.974 52.8333 201.719 52.9375C201.464 53.0417 201.247 53.1875 201.07 53.375C200.893 53.5625 200.753 53.7865 200.648 54.0469C200.549 54.3021 200.484 54.5833 200.453 54.8906L200.047 55.125C200.047 54.6146 200.096 54.1354 200.195 53.6875C200.299 53.2396 200.458 52.8438 200.672 52.5C200.885 52.151 201.156 51.8802 201.484 51.6875C201.818 51.4896 202.214 51.3906 202.672 51.3906C202.776 51.3906 202.896 51.4036 203.031 51.4297C203.167 51.4505 203.26 51.474 203.312 51.5ZM210.758 58.5L212.93 51.5469H213.883L213.695 52.9297L211.484 60H210.555L210.758 58.5ZM209.297 51.5469L211.148 58.5781L211.281 60H210.305L207.852 51.5469H209.297ZM215.961 58.5234L217.727 51.5469H219.164L216.711 60H215.742L215.961 58.5234ZM214.094 51.5469L216.219 58.3828L216.461 60H215.539L213.266 52.9141L213.078 51.5469H214.094ZM222.219 51.5469V60H220.766V51.5469H222.219ZM220.656 49.3047C220.656 49.0703 220.727 48.8724 220.867 48.7109C221.013 48.5495 221.227 48.4688 221.508 48.4688C221.784 48.4688 221.995 48.5495 222.141 48.7109C222.292 48.8724 222.367 49.0703 222.367 49.3047C222.367 49.5286 222.292 49.7214 222.141 49.8828C221.995 50.0391 221.784 50.1172 221.508 50.1172C221.227 50.1172 221.013 50.0391 220.867 49.8828C220.727 49.7214 220.656 49.5286 220.656 49.3047ZM228.078 51.5469V52.6562H223.508V51.5469H228.078ZM225.055 49.4922H226.5V57.9062C226.5 58.1927 226.544 58.4089 226.633 58.5547C226.721 58.7005 226.836 58.7969 226.977 58.8438C227.117 58.8906 227.268 58.9141 227.43 58.9141C227.549 58.9141 227.674 58.9036 227.805 58.8828C227.94 58.8568 228.042 58.8359 228.109 58.8203L228.117 60C228.003 60.0365 227.852 60.0703 227.664 60.1016C227.482 60.138 227.26 60.1562 227 60.1562C226.646 60.1562 226.32 60.0859 226.023 59.9453C225.727 59.8047 225.49 59.5703 225.312 59.2422C225.141 58.9089 225.055 58.4609 225.055 57.8984V49.4922ZM231.219 48V60H229.773V48H231.219ZM230.875 55.4531L230.273 55.4297C230.279 54.8516 230.365 54.3177 230.531 53.8281C230.698 53.3333 230.932 52.9036 231.234 52.5391C231.536 52.1745 231.896 51.8932 232.312 51.6953C232.734 51.4922 233.201 51.3906 233.711 51.3906C234.128 51.3906 234.503 51.4479 234.836 51.5625C235.169 51.6719 235.453 51.849 235.688 52.0938C235.927 52.3385 236.109 52.6562 236.234 53.0469C236.359 53.4323 236.422 53.9036 236.422 54.4609V60H234.969V54.4453C234.969 54.0026 234.904 53.6484 234.773 53.3828C234.643 53.112 234.453 52.9167 234.203 52.7969C233.953 52.6719 233.646 52.6094 233.281 52.6094C232.922 52.6094 232.594 52.6849 232.297 52.8359C232.005 52.987 231.753 53.1953 231.539 53.4609C231.331 53.7266 231.167 54.0312 231.047 54.375C230.932 54.7135 230.875 55.0729 230.875 55.4531ZM245.938 58.9688C246.281 58.9688 246.599 58.8984 246.891 58.7578C247.182 58.6172 247.422 58.4245 247.609 58.1797C247.797 57.9297 247.904 57.6458 247.93 57.3281H249.305C249.279 57.8281 249.109 58.2943 248.797 58.7266C248.49 59.1536 248.086 59.5 247.586 59.7656C247.086 60.026 246.536 60.1562 245.938 60.1562C245.302 60.1562 244.747 60.0443 244.273 59.8203C243.805 59.5964 243.414 59.2891 243.102 58.8984C242.794 58.5078 242.562 58.0599 242.406 57.5547C242.255 57.0443 242.18 56.5052 242.18 55.9375V55.6094C242.18 55.0417 242.255 54.5052 242.406 54C242.562 53.4896 242.794 53.0391 243.102 52.6484C243.414 52.2578 243.805 51.9505 244.273 51.7266C244.747 51.5026 245.302 51.3906 245.938 51.3906C246.599 51.3906 247.177 51.526 247.672 51.7969C248.167 52.0625 248.555 52.4271 248.836 52.8906C249.122 53.349 249.279 53.8698 249.305 54.4531H247.93C247.904 54.1042 247.805 53.7891 247.633 53.5078C247.466 53.2266 247.237 53.0026 246.945 52.8359C246.659 52.6641 246.323 52.5781 245.938 52.5781C245.495 52.5781 245.122 52.6667 244.82 52.8438C244.523 53.0156 244.286 53.25 244.109 53.5469C243.938 53.8385 243.812 54.1641 243.734 54.5234C243.661 54.8776 243.625 55.2396 243.625 55.6094V55.9375C243.625 56.3073 243.661 56.6719 243.734 57.0312C243.807 57.3906 243.93 57.7161 244.102 58.0078C244.279 58.2995 244.516 58.5339 244.812 58.7109C245.115 58.8828 245.49 58.9688 245.938 58.9688ZM250.547 55.8672V55.6875C250.547 55.0781 250.635 54.513 250.812 53.9922C250.99 53.4661 251.245 53.0104 251.578 52.625C251.911 52.2344 252.315 51.9323 252.789 51.7188C253.263 51.5 253.794 51.3906 254.383 51.3906C254.977 51.3906 255.51 51.5 255.984 51.7188C256.464 51.9323 256.87 52.2344 257.203 52.625C257.542 53.0104 257.799 53.4661 257.977 53.9922C258.154 54.513 258.242 55.0781 258.242 55.6875V55.8672C258.242 56.4766 258.154 57.0417 257.977 57.5625C257.799 58.0833 257.542 58.5391 257.203 58.9297C256.87 59.3151 256.466 59.6172 255.992 59.8359C255.523 60.0495 254.992 60.1562 254.398 60.1562C253.805 60.1562 253.271 60.0495 252.797 59.8359C252.323 59.6172 251.917 59.3151 251.578 58.9297C251.245 58.5391 250.99 58.0833 250.812 57.5625C250.635 57.0417 250.547 56.4766 250.547 55.8672ZM251.992 55.6875V55.8672C251.992 56.2891 252.042 56.6875 252.141 57.0625C252.24 57.4323 252.388 57.7604 252.586 58.0469C252.789 58.3333 253.042 58.5599 253.344 58.7266C253.646 58.888 253.997 58.9688 254.398 58.9688C254.794 58.9688 255.141 58.888 255.438 58.7266C255.74 58.5599 255.99 58.3333 256.188 58.0469C256.385 57.7604 256.534 57.4323 256.633 57.0625C256.737 56.6875 256.789 56.2891 256.789 55.8672V55.6875C256.789 55.2708 256.737 54.8776 256.633 54.5078C256.534 54.1328 256.383 53.8021 256.18 53.5156C255.982 53.224 255.732 52.9948 255.43 52.8281C255.133 52.6615 254.784 52.5781 254.383 52.5781C253.987 52.5781 253.638 52.6615 253.336 52.8281C253.039 52.9948 252.789 53.224 252.586 53.5156C252.388 53.8021 252.24 54.1328 252.141 54.5078C252.042 54.8776 251.992 55.2708 251.992 55.6875ZM265.227 58.0469V51.5469H266.68V60H265.297L265.227 58.0469ZM265.5 56.2656L266.102 56.25C266.102 56.8125 266.042 57.3333 265.922 57.8125C265.807 58.2865 265.62 58.6979 265.359 59.0469C265.099 59.3958 264.758 59.6693 264.336 59.8672C263.914 60.0599 263.401 60.1562 262.797 60.1562C262.385 60.1562 262.008 60.0964 261.664 59.9766C261.326 59.8568 261.034 59.6719 260.789 59.4219C260.544 59.1719 260.354 58.8464 260.219 58.4453C260.089 58.0443 260.023 57.5625 260.023 57V51.5469H261.469V57.0156C261.469 57.3958 261.51 57.7109 261.594 57.9609C261.682 58.2057 261.799 58.401 261.945 58.5469C262.096 58.6875 262.263 58.7865 262.445 58.8438C262.633 58.901 262.826 58.9297 263.023 58.9297C263.638 58.9297 264.125 58.8125 264.484 58.5781C264.844 58.3385 265.102 58.0182 265.258 57.6172C265.419 57.2109 265.5 56.7604 265.5 56.2656ZM270.328 53.1719V63.25H268.875V51.5469H270.203L270.328 53.1719ZM276.023 55.7031V55.8672C276.023 56.4818 275.951 57.0521 275.805 57.5781C275.659 58.099 275.445 58.5521 275.164 58.9375C274.888 59.3229 274.547 59.6224 274.141 59.8359C273.734 60.0495 273.268 60.1562 272.742 60.1562C272.206 60.1562 271.732 60.0677 271.32 59.8906C270.909 59.7135 270.56 59.4557 270.273 59.1172C269.987 58.7786 269.758 58.3724 269.586 57.8984C269.419 57.4245 269.305 56.8906 269.242 56.2969V55.4219C269.305 54.7969 269.422 54.237 269.594 53.7422C269.766 53.2474 269.992 52.8255 270.273 52.4766C270.56 52.1224 270.906 51.8542 271.312 51.6719C271.719 51.4844 272.188 51.3906 272.719 51.3906C273.25 51.3906 273.721 51.4948 274.133 51.7031C274.544 51.9062 274.891 52.1979 275.172 52.5781C275.453 52.9583 275.664 53.4141 275.805 53.9453C275.951 54.4714 276.023 55.0573 276.023 55.7031ZM274.57 55.8672V55.7031C274.57 55.2812 274.526 54.8854 274.438 54.5156C274.349 54.1406 274.211 53.8125 274.023 53.5312C273.841 53.2448 273.607 53.0208 273.32 52.8594C273.034 52.6927 272.693 52.6094 272.297 52.6094C271.932 52.6094 271.615 52.6719 271.344 52.7969C271.078 52.9219 270.852 53.0911 270.664 53.3047C270.477 53.513 270.323 53.7526 270.203 54.0234C270.089 54.2891 270.003 54.5651 269.945 54.8516V56.875C270.049 57.2396 270.195 57.5833 270.383 57.9062C270.57 58.224 270.82 58.4818 271.133 58.6797C271.445 58.8724 271.839 58.9688 272.312 58.9688C272.703 58.9688 273.039 58.888 273.32 58.7266C273.607 58.5599 273.841 58.3333 274.023 58.0469C274.211 57.7604 274.349 57.4323 274.438 57.0625C274.526 56.6875 274.57 56.2891 274.57 55.8672ZM277.484 55.8672V55.6875C277.484 55.0781 277.573 54.513 277.75 53.9922C277.927 53.4661 278.182 53.0104 278.516 52.625C278.849 52.2344 279.253 51.9323 279.727 51.7188C280.201 51.5 280.732 51.3906 281.32 51.3906C281.914 51.3906 282.448 51.5 282.922 51.7188C283.401 51.9323 283.807 52.2344 284.141 52.625C284.479 53.0104 284.737 53.4661 284.914 53.9922C285.091 54.513 285.18 55.0781 285.18 55.6875V55.8672C285.18 56.4766 285.091 57.0417 284.914 57.5625C284.737 58.0833 284.479 58.5391 284.141 58.9297C283.807 59.3151 283.404 59.6172 282.93 59.8359C282.461 60.0495 281.93 60.1562 281.336 60.1562C280.742 60.1562 280.208 60.0495 279.734 59.8359C279.26 59.6172 278.854 59.3151 278.516 58.9297C278.182 58.5391 277.927 58.0833 277.75 57.5625C277.573 57.0417 277.484 56.4766 277.484 55.8672ZM278.93 55.6875V55.8672C278.93 56.2891 278.979 56.6875 279.078 57.0625C279.177 57.4323 279.326 57.7604 279.523 58.0469C279.727 58.3333 279.979 58.5599 280.281 58.7266C280.583 58.888 280.935 58.9688 281.336 58.9688C281.732 58.9688 282.078 58.888 282.375 58.7266C282.677 58.5599 282.927 58.3333 283.125 58.0469C283.323 57.7604 283.471 57.4323 283.57 57.0625C283.674 56.6875 283.727 56.2891 283.727 55.8672V55.6875C283.727 55.2708 283.674 54.8776 283.57 54.5078C283.471 54.1328 283.32 53.8021 283.117 53.5156C282.919 53.224 282.669 52.9948 282.367 52.8281C282.07 52.6615 281.721 52.5781 281.32 52.5781C280.924 52.5781 280.576 52.6615 280.273 52.8281C279.977 52.9948 279.727 53.224 279.523 53.5156C279.326 53.8021 279.177 54.1328 279.078 54.5078C278.979 54.8776 278.93 55.2708 278.93 55.6875ZM288.438 53.3516V60H286.992V51.5469H288.359L288.438 53.3516ZM288.094 55.4531L287.492 55.4297C287.497 54.8516 287.583 54.3177 287.75 53.8281C287.917 53.3333 288.151 52.9036 288.453 52.5391C288.755 52.1745 289.115 51.8932 289.531 51.6953C289.953 51.4922 290.419 51.3906 290.93 51.3906C291.346 51.3906 291.721 51.4479 292.055 51.5625C292.388 51.6719 292.672 51.849 292.906 52.0938C293.146 52.3385 293.328 52.6562 293.453 53.0469C293.578 53.4323 293.641 53.9036 293.641 54.4609V60H292.188V54.4453C292.188 54.0026 292.122 53.6484 291.992 53.3828C291.862 53.112 291.672 52.9167 291.422 52.7969C291.172 52.6719 290.865 52.6094 290.5 52.6094C290.141 52.6094 289.812 52.6849 289.516 52.8359C289.224 52.987 288.971 53.1953 288.758 53.4609C288.549 53.7266 288.385 54.0312 288.266 54.375C288.151 54.7135 288.094 55.0729 288.094 55.4531ZM300.758 57.7578C300.758 57.5495 300.711 57.3568 300.617 57.1797C300.529 56.9974 300.344 56.8333 300.062 56.6875C299.786 56.5365 299.37 56.4062 298.812 56.2969C298.344 56.1979 297.919 56.0807 297.539 55.9453C297.164 55.8099 296.844 55.6458 296.578 55.4531C296.318 55.2604 296.117 55.0339 295.977 54.7734C295.836 54.513 295.766 54.2083 295.766 53.8594C295.766 53.526 295.839 53.2109 295.984 52.9141C296.135 52.6172 296.346 52.3542 296.617 52.125C296.893 51.8958 297.224 51.7161 297.609 51.5859C297.995 51.4557 298.424 51.3906 298.898 51.3906C299.576 51.3906 300.154 51.5104 300.633 51.75C301.112 51.9896 301.479 52.3099 301.734 52.7109C301.99 53.1068 302.117 53.5469 302.117 54.0312H300.672C300.672 53.7969 300.602 53.5703 300.461 53.3516C300.326 53.1276 300.125 52.9427 299.859 52.7969C299.599 52.651 299.279 52.5781 298.898 52.5781C298.497 52.5781 298.172 52.6406 297.922 52.7656C297.677 52.8854 297.497 53.0391 297.383 53.2266C297.273 53.4141 297.219 53.612 297.219 53.8203C297.219 53.9766 297.245 54.1172 297.297 54.2422C297.354 54.362 297.453 54.474 297.594 54.5781C297.734 54.6771 297.932 54.7708 298.188 54.8594C298.443 54.9479 298.768 55.0365 299.164 55.125C299.857 55.2812 300.427 55.4688 300.875 55.6875C301.323 55.9062 301.656 56.1745 301.875 56.4922C302.094 56.8099 302.203 57.1953 302.203 57.6484C302.203 58.0182 302.125 58.3568 301.969 58.6641C301.818 58.9714 301.596 59.237 301.305 59.4609C301.018 59.6797 300.674 59.8516 300.273 59.9766C299.878 60.0964 299.432 60.1562 298.938 60.1562C298.193 60.1562 297.562 60.0234 297.047 59.7578C296.531 59.4922 296.141 59.1484 295.875 58.7266C295.609 58.3047 295.477 57.8594 295.477 57.3906H296.93C296.951 57.7865 297.065 58.1016 297.273 58.3359C297.482 58.5651 297.737 58.7292 298.039 58.8281C298.341 58.9219 298.641 58.9688 298.938 58.9688C299.333 58.9688 299.664 58.9167 299.93 58.8125C300.201 58.7083 300.406 58.5651 300.547 58.3828C300.688 58.2005 300.758 57.9922 300.758 57.7578Z" fill="#3D3C3C"/>
<path d="M29.6582 87.6981H31.7021C31.6611 88.368 31.4766 88.9628 31.1484 89.4823C30.8249 90.0018 30.3714 90.4074 29.7881 90.6991C29.2093 90.9908 28.512 91.1366 27.6963 91.1366C27.0583 91.1366 26.4863 91.0272 25.9805 90.8085C25.4746 90.5852 25.0417 90.2662 24.6816 89.8514C24.3262 89.4367 24.055 88.9354 23.8682 88.3475C23.6813 87.7596 23.5879 87.1011 23.5879 86.3719V85.6815C23.5879 84.9524 23.6836 84.2938 23.875 83.7059C24.071 83.1135 24.349 82.6099 24.709 82.1952C25.0736 81.7805 25.5088 81.4615 26.0146 81.2382C26.5205 81.0149 27.0856 80.9032 27.71 80.9032C28.5394 80.9032 29.2389 81.0536 29.8086 81.3544C30.3828 81.6552 30.8271 82.0699 31.1416 82.5985C31.4606 83.1272 31.652 83.7287 31.7158 84.4032H29.665C29.6423 84.0022 29.5625 83.6626 29.4258 83.3846C29.2891 83.1021 29.0817 82.8902 28.8037 82.7489C28.5303 82.6031 28.1657 82.5302 27.71 82.5302C27.3682 82.5302 27.0697 82.594 26.8145 82.7216C26.5592 82.8492 26.3451 83.0428 26.1719 83.3026C25.9987 83.5624 25.8688 83.8905 25.7822 84.287C25.7002 84.6789 25.6592 85.1392 25.6592 85.6678V86.3719C25.6592 86.8869 25.6979 87.3404 25.7754 87.7323C25.8529 88.1197 25.9714 88.4478 26.1309 88.7167C26.2949 88.981 26.5046 89.1815 26.7598 89.3182C27.0195 89.4504 27.3317 89.5165 27.6963 89.5165C28.1247 89.5165 28.4779 89.4481 28.7559 89.3114C29.0339 89.1747 29.2458 88.9719 29.3916 88.703C29.542 88.4341 29.6309 88.0992 29.6582 87.6981ZM39.6865 85.1005V86.7001H34.4912V85.1005H39.6865ZM35.0996 81.0468V90.9999H33.0488V81.0468H35.0996ZM41.1494 81.0468V90.9999H39.1055V81.0468H41.1494ZM49.6123 89.4003V90.9999H44.3145V89.4003H49.6123ZM44.9844 81.0468V90.9999H42.9336V81.0468H44.9844ZM48.9219 85.1005V86.6591H44.3145V85.1005H48.9219ZM49.6055 81.0468V82.6532H44.3145V81.0468H49.6055ZM56.5781 87.6981H58.6221C58.5811 88.368 58.3965 88.9628 58.0684 89.4823C57.7448 90.0018 57.2913 90.4074 56.708 90.6991C56.1292 90.9908 55.432 91.1366 54.6162 91.1366C53.9782 91.1366 53.4062 91.0272 52.9004 90.8085C52.3945 90.5852 51.9616 90.2662 51.6016 89.8514C51.2461 89.4367 50.9749 88.9354 50.7881 88.3475C50.6012 87.7596 50.5078 87.1011 50.5078 86.3719V85.6815C50.5078 84.9524 50.6035 84.2938 50.7949 83.7059C50.9909 83.1135 51.2689 82.6099 51.6289 82.1952C51.9935 81.7805 52.4287 81.4615 52.9346 81.2382C53.4404 81.0149 54.0055 80.9032 54.6299 80.9032C55.4593 80.9032 56.1589 81.0536 56.7285 81.3544C57.3027 81.6552 57.7471 82.0699 58.0615 82.5985C58.3805 83.1272 58.5719 83.7287 58.6357 84.4032H56.585C56.5622 84.0022 56.4824 83.6626 56.3457 83.3846C56.209 83.1021 56.0016 82.8902 55.7236 82.7489C55.4502 82.6031 55.0856 82.5302 54.6299 82.5302C54.2881 82.5302 53.9896 82.594 53.7344 82.7216C53.4792 82.8492 53.265 83.0428 53.0918 83.3026C52.9186 83.5624 52.7887 83.8905 52.7021 84.287C52.6201 84.6789 52.5791 85.1392 52.5791 85.6678V86.3719C52.5791 86.8869 52.6178 87.3404 52.6953 87.7323C52.7728 88.1197 52.8913 88.4478 53.0508 88.7167C53.2148 88.981 53.4245 89.1815 53.6797 89.3182C53.9395 89.4504 54.2516 89.5165 54.6162 89.5165C55.0446 89.5165 55.3978 89.4481 55.6758 89.3114C55.9538 89.1747 56.1657 88.9719 56.3115 88.703C56.4619 88.4341 56.5508 88.0992 56.5781 87.6981ZM62.0195 81.0468V90.9999H59.9688V81.0468H62.0195ZM67.9805 81.0468L64.0361 85.9618L61.7598 88.4091L61.3906 86.4677L62.9287 84.3622L65.4648 81.0468H67.9805ZM65.6494 90.9999L62.7168 86.3993L64.2344 85.1278L68.0762 90.9999H65.6494ZM77.0449 85.7909V86.2626C77.0449 87.0191 76.9424 87.6981 76.7373 88.2997C76.5322 88.9012 76.2428 89.4139 75.8691 89.8378C75.4954 90.257 75.0488 90.5783 74.5293 90.8016C74.0143 91.0249 73.4424 91.1366 72.8135 91.1366C72.1891 91.1366 71.6172 91.0249 71.0977 90.8016C70.5827 90.5783 70.1361 90.257 69.7578 89.8378C69.3796 89.4139 69.0856 88.9012 68.876 88.2997C68.6709 87.6981 68.5684 87.0191 68.5684 86.2626V85.7909C68.5684 85.0298 68.6709 84.3508 68.876 83.7538C69.0811 83.1522 69.3704 82.6395 69.7441 82.2157C70.1224 81.7919 70.569 81.4683 71.084 81.245C71.6035 81.0217 72.1755 80.91 72.7998 80.91C73.4287 80.91 74.0007 81.0217 74.5156 81.245C75.0352 81.4683 75.4818 81.7919 75.8555 82.2157C76.2337 82.6395 76.5254 83.1522 76.7305 83.7538C76.9401 84.3508 77.0449 85.0298 77.0449 85.7909ZM74.9736 86.2626V85.7772C74.9736 85.2486 74.9258 84.7837 74.8301 84.3827C74.7344 83.9816 74.5931 83.6444 74.4062 83.371C74.2194 83.0975 73.9915 82.8925 73.7227 82.7557C73.4538 82.6145 73.1462 82.5438 72.7998 82.5438C72.4535 82.5438 72.1458 82.6145 71.877 82.7557C71.6126 82.8925 71.387 83.0975 71.2002 83.371C71.0179 83.6444 70.8789 83.9816 70.7832 84.3827C70.6875 84.7837 70.6396 85.2486 70.6396 85.7772V86.2626C70.6396 86.7867 70.6875 87.2515 70.7832 87.6571C70.8789 88.0581 71.0202 88.3977 71.207 88.6757C71.3939 88.9491 71.6217 89.1565 71.8906 89.2977C72.1595 89.439 72.4671 89.5096 72.8135 89.5096C73.1598 89.5096 73.4674 89.439 73.7363 89.2977C74.0052 89.1565 74.2308 88.9491 74.4131 88.6757C74.5954 88.3977 74.7344 88.0581 74.8301 87.6571C74.9258 87.2515 74.9736 86.7867 74.9736 86.2626ZM84.0176 81.0468H86.0615V87.6229C86.0615 88.3885 85.8975 89.0334 85.5693 89.5575C85.2458 90.0816 84.7969 90.4758 84.2227 90.7401C83.653 91.0044 82.9967 91.1366 82.2539 91.1366C81.5111 91.1366 80.8503 91.0044 80.2715 90.7401C79.6973 90.4758 79.2461 90.0816 78.918 89.5575C78.5944 89.0334 78.4326 88.3885 78.4326 87.6229V81.0468H80.4834V87.6229C80.4834 88.0695 80.554 88.4341 80.6953 88.7167C80.8366 88.9992 81.0394 89.2066 81.3037 89.3387C81.5726 89.4709 81.8893 89.537 82.2539 89.537C82.6276 89.537 82.9443 89.4709 83.2041 89.3387C83.4684 89.2066 83.6689 88.9992 83.8057 88.7167C83.9469 88.4341 84.0176 88.0695 84.0176 87.6229V81.0468ZM92.2002 81.0468V90.9999H90.1562V81.0468H92.2002ZM95.2627 81.0468V82.6532H87.1416V81.0468H95.2627ZM105.688 87.6981H107.731C107.69 88.368 107.506 88.9628 107.178 89.4823C106.854 90.0018 106.401 90.4074 105.817 90.6991C105.239 90.9908 104.541 91.1366 103.726 91.1366C103.088 91.1366 102.516 91.0272 102.01 90.8085C101.504 90.5852 101.071 90.2662 100.711 89.8514C100.355 89.4367 100.084 88.9354 99.8975 88.3475C99.7106 87.7596 99.6172 87.1011 99.6172 86.3719V85.6815C99.6172 84.9524 99.7129 84.2938 99.9043 83.7059C100.1 83.1135 100.378 82.6099 100.738 82.1952C101.103 81.7805 101.538 81.4615 102.044 81.2382C102.55 81.0149 103.115 80.9032 103.739 80.9032C104.569 80.9032 105.268 81.0536 105.838 81.3544C106.412 81.6552 106.856 82.0699 107.171 82.5985C107.49 83.1272 107.681 83.7287 107.745 84.4032H105.694C105.672 84.0022 105.592 83.6626 105.455 83.3846C105.318 83.1021 105.111 82.8902 104.833 82.7489C104.56 82.6031 104.195 82.5302 103.739 82.5302C103.397 82.5302 103.099 82.594 102.844 82.7216C102.589 82.8492 102.374 83.0428 102.201 83.3026C102.028 83.5624 101.898 83.8905 101.812 84.287C101.729 84.6789 101.688 85.1392 101.688 85.6678V86.3719C101.688 86.8869 101.727 87.3404 101.805 87.7323C101.882 88.1197 102.001 88.4478 102.16 88.7167C102.324 88.981 102.534 89.1815 102.789 89.3182C103.049 89.4504 103.361 89.5165 103.726 89.5165C104.154 89.5165 104.507 89.4481 104.785 89.3114C105.063 89.1747 105.275 88.9719 105.421 88.703C105.571 88.4341 105.66 88.0992 105.688 87.6981ZM117.254 85.7909V86.2626C117.254 87.0191 117.151 87.6981 116.946 88.2997C116.741 88.9012 116.452 89.4139 116.078 89.8378C115.704 90.257 115.258 90.5783 114.738 90.8016C114.223 91.0249 113.651 91.1366 113.022 91.1366C112.398 91.1366 111.826 91.0249 111.307 90.8016C110.792 90.5783 110.345 90.257 109.967 89.8378C109.589 89.4139 109.295 88.9012 109.085 88.2997C108.88 87.6981 108.777 87.0191 108.777 86.2626V85.7909C108.777 85.0298 108.88 84.3508 109.085 83.7538C109.29 83.1522 109.579 82.6395 109.953 82.2157C110.331 81.7919 110.778 81.4683 111.293 81.245C111.812 81.0217 112.384 80.91 113.009 80.91C113.638 80.91 114.21 81.0217 114.725 81.245C115.244 81.4683 115.691 81.7919 116.064 82.2157C116.443 82.6395 116.734 83.1522 116.939 83.7538C117.149 84.3508 117.254 85.0298 117.254 85.7909ZM115.183 86.2626V85.7772C115.183 85.2486 115.135 84.7837 115.039 84.3827C114.943 83.9816 114.802 83.6444 114.615 83.371C114.428 83.0975 114.201 82.8925 113.932 82.7557C113.663 82.6145 113.355 82.5438 113.009 82.5438C112.662 82.5438 112.355 82.6145 112.086 82.7557C111.822 82.8925 111.596 83.0975 111.409 83.371C111.227 83.6444 111.088 83.9816 110.992 84.3827C110.896 84.7837 110.849 85.2486 110.849 85.7772V86.2626C110.849 86.7867 110.896 87.2515 110.992 87.6571C111.088 88.0581 111.229 88.3977 111.416 88.6757C111.603 88.9491 111.831 89.1565 112.1 89.2977C112.368 89.439 112.676 89.5096 113.022 89.5096C113.369 89.5096 113.676 89.439 113.945 89.2977C114.214 89.1565 114.44 88.9491 114.622 88.6757C114.804 88.3977 114.943 88.0581 115.039 87.6571C115.135 87.2515 115.183 86.7867 115.183 86.2626ZM124.227 81.0468H126.271V87.6229C126.271 88.3885 126.106 89.0334 125.778 89.5575C125.455 90.0816 125.006 90.4758 124.432 90.7401C123.862 91.0044 123.206 91.1366 122.463 91.1366C121.72 91.1366 121.059 91.0044 120.48 90.7401C119.906 90.4758 119.455 90.0816 119.127 89.5575C118.803 89.0334 118.642 88.3885 118.642 87.6229V81.0468H120.692V87.6229C120.692 88.0695 120.763 88.4341 120.904 88.7167C121.046 88.9992 121.248 89.2066 121.513 89.3387C121.782 89.4709 122.098 89.537 122.463 89.537C122.837 89.537 123.153 89.4709 123.413 89.3387C123.677 89.2066 123.878 88.9992 124.015 88.7167C124.156 88.4341 124.227 88.0695 124.227 87.6229V81.0468ZM131.835 87.452H129.299V85.8524H131.835C132.227 85.8524 132.546 85.7886 132.792 85.661C133.038 85.5288 133.218 85.3466 133.332 85.1141C133.446 84.8817 133.503 84.6197 133.503 84.328C133.503 84.0318 133.446 83.7561 133.332 83.5009C133.218 83.2456 133.038 83.0406 132.792 82.8856C132.546 82.7307 132.227 82.6532 131.835 82.6532H130.01V90.9999H127.959V81.0468H131.835C132.614 81.0468 133.282 81.188 133.838 81.4706C134.398 81.7486 134.827 82.1337 135.123 82.6259C135.419 83.118 135.567 83.6809 135.567 84.3143C135.567 84.9569 135.419 85.5129 135.123 85.9823C134.827 86.4517 134.398 86.814 133.838 87.0692C133.282 87.3244 132.614 87.452 131.835 87.452ZM145.158 85.7909V86.2626C145.158 87.0191 145.056 87.6981 144.851 88.2997C144.646 88.9012 144.356 89.4139 143.982 89.8378C143.609 90.257 143.162 90.5783 142.643 90.8016C142.128 91.0249 141.556 91.1366 140.927 91.1366C140.302 91.1366 139.73 91.0249 139.211 90.8016C138.696 90.5783 138.249 90.257 137.871 89.8378C137.493 89.4139 137.199 88.9012 136.989 88.2997C136.784 87.6981 136.682 87.0191 136.682 86.2626V85.7909C136.682 85.0298 136.784 84.3508 136.989 83.7538C137.194 83.1522 137.484 82.6395 137.857 82.2157C138.236 81.7919 138.682 81.4683 139.197 81.245C139.717 81.0217 140.289 80.91 140.913 80.91C141.542 80.91 142.114 81.0217 142.629 81.245C143.148 81.4683 143.595 81.7919 143.969 82.2157C144.347 82.6395 144.639 83.1522 144.844 83.7538C145.053 84.3508 145.158 85.0298 145.158 85.7909ZM143.087 86.2626V85.7772C143.087 85.2486 143.039 84.7837 142.943 84.3827C142.848 83.9816 142.706 83.6444 142.52 83.371C142.333 83.0975 142.105 82.8925 141.836 82.7557C141.567 82.6145 141.259 82.5438 140.913 82.5438C140.567 82.5438 140.259 82.6145 139.99 82.7557C139.726 82.8925 139.5 83.0975 139.313 83.371C139.131 83.6444 138.992 83.9816 138.896 84.3827C138.801 84.7837 138.753 85.2486 138.753 85.7772V86.2626C138.753 86.7867 138.801 87.2515 138.896 87.6571C138.992 88.0581 139.133 88.3977 139.32 88.6757C139.507 88.9491 139.735 89.1565 140.004 89.2977C140.273 89.439 140.58 89.5096 140.927 89.5096C141.273 89.5096 141.581 89.439 141.85 89.2977C142.118 89.1565 142.344 88.9491 142.526 88.6757C142.709 88.3977 142.848 88.0581 142.943 87.6571C143.039 87.2515 143.087 86.7867 143.087 86.2626ZM154.735 81.0468V90.9999H152.685L148.686 84.328V90.9999H146.635V81.0468H148.686L152.691 87.7255V81.0468H154.735ZM161.701 88.3954C161.701 88.2177 161.674 88.0581 161.619 87.9169C161.569 87.771 161.473 87.6389 161.332 87.5204C161.191 87.3973 160.993 87.2766 160.737 87.1581C160.482 87.0396 160.152 86.9165 159.746 86.7889C159.295 86.6431 158.867 86.479 158.461 86.2968C158.06 86.1145 157.704 85.9025 157.395 85.661C157.089 85.4149 156.848 85.1301 156.67 84.8065C156.497 84.483 156.41 84.107 156.41 83.6786C156.41 83.2639 156.501 82.8879 156.684 82.5507C156.866 82.2089 157.121 81.9172 157.449 81.6757C157.777 81.4296 158.165 81.2404 158.611 81.1083C159.062 80.9761 159.557 80.91 160.095 80.91C160.828 80.91 161.469 81.0422 162.016 81.3065C162.562 81.5708 162.986 81.9331 163.287 82.3934C163.592 82.8537 163.745 83.3801 163.745 83.9725H161.708C161.708 83.6809 161.646 83.4257 161.523 83.2069C161.405 82.9836 161.223 82.8081 160.977 82.6805C160.735 82.5529 160.43 82.4891 160.061 82.4891C159.705 82.4891 159.409 82.5438 159.172 82.6532C158.935 82.758 158.757 82.9016 158.639 83.0839C158.52 83.2616 158.461 83.4621 158.461 83.6854C158.461 83.854 158.502 84.0067 158.584 84.1434C158.671 84.2802 158.798 84.4078 158.967 84.5262C159.135 84.6447 159.343 84.7564 159.589 84.8612C159.835 84.966 160.12 85.0686 160.443 85.1688C160.986 85.3329 161.462 85.5175 161.872 85.7225C162.287 85.9276 162.633 86.1578 162.911 86.413C163.189 86.6682 163.399 86.9576 163.54 87.2811C163.681 87.6047 163.752 87.9716 163.752 88.3817C163.752 88.8147 163.668 89.202 163.499 89.5438C163.33 89.8856 163.087 90.175 162.768 90.412C162.449 90.649 162.068 90.829 161.626 90.952C161.184 91.0751 160.689 91.1366 160.143 91.1366C159.65 91.1366 159.165 91.0728 158.687 90.9452C158.208 90.813 157.773 90.6148 157.381 90.3505C156.993 90.0861 156.684 89.7489 156.451 89.3387C156.219 88.9286 156.103 88.4432 156.103 87.8827H158.16C158.16 88.1926 158.208 88.4546 158.304 88.6688C158.399 88.883 158.534 89.0562 158.707 89.1884C158.885 89.3205 159.094 89.4162 159.336 89.4755C159.582 89.5347 159.851 89.5643 160.143 89.5643C160.498 89.5643 160.79 89.5142 161.018 89.4139C161.25 89.3137 161.421 89.1747 161.53 88.9969C161.644 88.8192 161.701 88.6187 161.701 88.3954Z" fill="#3681CF"/>
<g clip-path="url(#clip0_21628_2094)">
<path fill-rule="evenodd" clip-rule="evenodd" d="M186.446 85.9602C186.54 86.0539 186.592 86.1811 186.592 86.3137C186.592 86.4463 186.54 86.5735 186.446 86.6673L182.203 90.9099C182.11 91.0037 181.982 91.0564 181.85 91.0564C181.717 91.0564 181.59 91.0037 181.496 90.9099C181.403 90.8161 181.35 90.689 181.35 90.5564C181.35 90.4238 181.403 90.2966 181.496 90.2028L184.885 86.8136L170.536 86.8144C170.47 86.8144 170.405 86.8014 170.345 86.7762C170.284 86.7511 170.229 86.7142 170.182 86.6677C170.136 86.6212 170.099 86.566 170.074 86.5053C170.048 86.4446 170.035 86.3795 170.035 86.3137C170.035 86.248 170.048 86.1829 170.074 86.1221C170.099 86.0614 170.136 86.0062 170.182 85.9597C170.229 85.9132 170.284 85.8764 170.345 85.8512C170.405 85.826 170.47 85.8131 170.536 85.8131L184.885 85.8138L181.496 82.4246C181.403 82.3309 181.35 82.2037 181.35 82.0711C181.35 81.9385 181.403 81.8113 181.496 81.7175C181.59 81.6238 181.717 81.5711 181.85 81.5711C181.982 81.5711 182.11 81.6238 182.203 81.7175L186.446 85.9602Z" fill="#3681CF"/>
</g>
<path d="M0 113L329.5 93.5L418 113V126H0V113Z" fill="#6CBAE6"/>
<ellipse cx="369.5" cy="114" rx="29.5" ry="4" fill="url(#paint0_radial_21628_2094)" fill-opacity="0.5"/>
<g clip-path="url(#clip1_21628_2094)">
<path d="M407.965 46.2452C405.125 44.6927 402.225 43.2512 399.385 41.6988C397.929 40.908 396.646 40.9133 395.148 41.6422C390.259 44.0749 384.913 41.2232 384.022 35.7295C383.739 34.0616 382.953 33.0013 381.5 32.2456C378.669 30.7981 375.866 29.2777 373.032 27.7952C370.236 26.3448 368.482 26.9196 367.056 29.6873C360.453 42.7752 353.777 55.834 347.14 68.9249C347.283 68.983 347.43 69.076 347.543 69.1721C349.014 70.1378 349.43 72.1467 348.45 73.6419C347.532 75.0611 345.662 75.5049 344.2 74.6442C341.978 79.0321 339.756 83.4201 337.534 87.808C336.048 90.6867 336.619 92.4707 339.491 93.9852C351.051 100.107 362.609 106.194 374.201 112.278C377.038 113.796 378.789 113.186 380.275 110.307C382.531 105.916 384.753 101.528 387.007 97.1023C385.994 96.6257 385.215 95.6354 385.109 94.4106C384.955 92.6258 386.242 91.0688 387.998 90.9169C388.687 90.8573 389.362 91.0457 389.912 91.3859C391.633 88.0285 393.321 84.6741 395.042 81.3167C399.996 71.6152 404.947 61.8788 409.866 52.1804C411.16 49.4946 410.621 47.6726 407.965 46.2452ZM353.335 78.79C351.579 78.9419 350.043 77.6292 349.889 75.8444C349.734 74.0596 351.022 72.5026 352.778 72.3507C354.534 72.1988 356.07 73.5115 356.224 75.2963C356.379 77.0811 355.091 78.6381 353.335 78.79ZM360.462 82.5807C358.706 82.7326 357.17 81.4199 357.016 79.6351C356.904 78.3402 357.565 77.1548 358.621 76.5345C359.019 76.3238 359.423 76.1831 359.905 76.1414C360.353 76.1027 360.809 76.1689 361.238 76.3082C362.382 76.7028 363.236 77.7571 363.351 79.087C363.506 80.8718 362.218 82.4288 360.462 82.5807ZM367.693 86.3624C365.937 86.5143 364.401 85.2016 364.246 83.4168C364.092 81.632 365.379 80.075 367.135 79.9231C368.891 79.7712 370.427 81.0839 370.582 82.8687C370.736 84.6535 369.414 86.2135 367.693 86.3624ZM374.673 90.06C372.917 90.2119 371.381 88.8992 371.227 87.1144C371.072 85.3296 372.36 83.7726 374.116 83.6207C375.872 83.4688 377.408 84.7815 377.562 86.5663C377.713 88.3161 376.429 89.9081 374.673 90.06ZM381.69 93.7896C379.934 93.9415 378.399 92.6288 378.244 90.844C378.09 89.0592 379.377 87.5022 381.133 87.3503C382.889 87.1984 384.425 88.5111 384.58 90.2959C384.734 92.0807 383.446 93.6377 381.69 93.7896Z" fill="#0098ED"/>
<path d="M379.08 55.1968C376.344 58.4656 371.647 58.6958 369.543 55.634C368.156 53.6385 368.387 50.6921 370.121 48.2855C372.817 44.5618 378.244 44.3391 380.18 47.8737C381.404 49.989 380.938 53.0263 379.08 55.1968ZM376.639 53.0457C377.835 51.6376 378.034 49.928 377.094 49.0926C376.152 48.2222 374.079 48.7188 372.914 50.0889C371.683 51.4999 371.502 53.4195 372.473 54.217C373.513 55.0085 375.411 54.4917 376.639 53.0457Z" fill="white"/>
<path d="M385.355 76.408C385.129 76.6039 384.687 77.1005 384.166 77.4981C381.356 79.5041 377.715 79.114 376.116 76.6784C374.281 73.9108 375.373 69.6911 378.484 67.5533C381.071 65.7782 384.415 65.9472 386.109 67.8809C387.93 70.0856 387.742 73.5219 385.355 76.408ZM383.146 74.1311C384.314 72.796 384.489 70.8064 383.552 70.006C382.578 69.1735 380.574 69.6643 379.372 71.0023C378.204 72.3374 377.992 74.2949 378.966 75.1274C379.939 75.9598 382.013 75.4632 383.146 74.1311Z" fill="white"/>
<path d="M390.974 59.5622C390.235 59.8377 389.803 60.0514 389.33 60.1981C382.179 62.5444 374.99 64.8587 367.842 67.24C366.695 67.6212 365.847 67.8357 365.329 66.2586C364.851 64.7486 365.544 64.3361 366.759 63.9489C373.982 61.6316 381.199 59.2443 388.457 56.9241C388.995 56.7364 390.012 56.86 390.286 57.2241C390.754 57.8183 390.764 58.7342 390.974 59.5622Z" fill="white"/>
</g>
<path d="M341.047 81.0289L383.917 103.601L379.416 112.15C378.644 113.616 376.83 114.178 375.363 113.407L337.803 93.6299C336.337 92.858 335.774 91.0438 336.546 89.5777L341.047 81.0289Z" fill="#6755B0"/>
<defs>
<radialGradient id="paint0_radial_21628_2094" cx="0" cy="0" r="1" gradientUnits="userSpaceOnUse" gradientTransform="translate(369.5 114) rotate(90) scale(4 29.5)">
<stop stop-color="#585858"/>
<stop offset="1" stop-color="#D9D9D9" stop-opacity="0"/>
</radialGradient>
<clipPath id="clip0_21628_2094">
<rect width="16" height="16" fill="white" transform="translate(167 86.3137) rotate(-45)"/>
</clipPath>
<clipPath id="clip1_21628_2094">
<rect width="77.0692" height="86.2715" fill="white" transform="translate(331.527 30.3992) rotate(-4.94455)"/>
</clipPath>
</defs>
</svg>
