<svg width="60" height="60" viewBox="0 0 60 60" fill="none" xmlns="http://www.w3.org/2000/svg">
<circle cx="30" cy="30" r="30" fill="#FFF4D2"/>
<path d="M43.6188 21.309L32.9314 29.0354L31.1777 30.3062C30.2486 30.9925 28.9805 30.9925 28.0515 30.3062L26.2978 29.0354L15.5977 21.3217C16.1928 20.4894 17.1542 19.9968 18.1774 20H41.0518C42.0675 20.0009 43.0216 20.4874 43.6188 21.309Z" fill="#FFD54F"/>
<path d="M15.5973 21.3213L26.2975 29.035L15.9278 39.4048C15.3323 38.8078 14.9985 37.9986 15 37.1554V23.1767C14.9972 22.5105 15.2064 21.8607 15.5973 21.3213Z" fill="#FFC107"/>
<path d="M44.2285 23.1767V37.1555C44.23 37.9987 43.8963 38.8079 43.3009 39.4048L32.9312 29.0351L43.6186 21.3086C44.0153 21.8506 44.229 22.5049 44.2285 23.1767Z" fill="#FFC107"/>
<path d="M32.931 29.0361L31.1773 30.3069C30.2483 30.9933 28.9802 30.9933 28.0512 30.3069L26.2975 29.0361L15.9277 39.4059C16.5247 40.0013 17.3339 40.3351 18.1771 40.3335H21.3858H30.236H37.8414H41.0515C41.8946 40.335 42.7038 40.0013 43.3008 39.4059L32.931 29.0361Z" fill="#FFA000"/>
</svg>
