<svg width="76" height="104" viewBox="0 0 76 104" fill="none" xmlns="http://www.w3.org/2000/svg">
<path d="M65.1113 65.4756H10.9135C8.54374 65.4756 6.74734 67.587 7.12956 69.9288L10.3401 89.6613C11.4103 96.2644 14.2769 103.866 27.0046 103.866H48.4468C61.3273 103.866 63.6206 97.3777 64.9966 90.122L68.8569 70.044C69.3156 67.6638 67.5192 65.4756 65.1113 65.4756ZM32.8525 90.2372C32.8525 91.7344 31.6676 92.9245 30.2152 92.9245C28.7246 92.9245 27.5397 91.7344 27.5397 90.2372V77.5684C27.5397 76.1096 28.7246 74.8811 30.2152 74.8811C31.6676 74.8811 32.8525 76.1096 32.8525 77.5684V90.2372ZM49.2112 90.2372C49.2112 91.7344 48.0263 92.9245 46.5357 92.9245C45.0833 92.9245 43.8602 91.7344 43.8602 90.2372V77.5684C43.8602 76.1096 45.0833 74.8811 46.5357 74.8811C48.0263 74.8811 49.2112 76.1096 49.2112 77.5684V90.2372Z" fill="#FF9900"/>
<path d="M65.0237 41.1328H63.5308L50.9154 27.879C49.9076 26.8203 48.2654 26.8203 47.2203 27.879C46.2126 28.9377 46.2126 30.6631 47.2203 31.761L56.1407 41.1328H19.8621L28.7824 31.761C29.7902 30.7023 29.7902 28.977 28.7824 27.879C27.7747 26.8203 26.1325 26.8203 25.0874 27.879L12.5093 41.1328H11.0164C7.65726 41.1328 0.677734 41.1328 0.677734 51.1711C0.677734 54.9747 1.42421 57.4843 2.9918 59.1312C3.88757 60.1115 4.96995 60.6213 6.12699 60.8957C7.20937 61.1702 8.36641 61.2094 9.48612 61.2094H66.5167C67.6737 61.2094 68.7561 61.131 69.8011 60.8957C72.9363 60.1115 75.325 57.7588 75.325 51.1711C75.325 41.1328 68.3455 41.1328 65.0237 41.1328Z" fill="#FF9900"/>
<path d="M40.9025 0.5L40.2925 23.2568H35.835L35.225 0.5H40.9025ZM38.228 33.4387C37.2583 33.4387 36.445 33.1102 35.7881 32.4533C35.1312 31.7964 34.8027 30.9831 34.8027 30.0134C34.8027 29.0437 35.1312 28.2304 35.7881 27.5735C36.445 26.9166 37.2583 26.5882 38.228 26.5882C39.1664 26.5882 39.9641 26.9166 40.621 27.5735C41.2779 28.2304 41.6063 29.0437 41.6063 30.0134C41.6063 30.9831 41.2779 31.7964 40.621 32.4533C39.9641 33.1102 39.1664 33.4387 38.228 33.4387Z" fill="black"/>
</svg>
