<svg width="76" height="76" viewBox="0 0 76 76" fill="none" xmlns="http://www.w3.org/2000/svg">
<path d="M50.9745 29.9099H42.4097V24.149C46.1072 18.2828 49.6757 15.5189 52.6994 14.7143C62.4472 12.1211 66.5293 29.9099 50.9745 29.9099Z" fill="#FF9900"/>
<path d="M50.9746 29.9099H47.2637C60.6483 29.9099 59.4934 16.739 52.6994 14.7143C62.4473 12.1211 66.5294 29.9099 50.9746 29.9099Z" fill="#CA7900"/>
<path d="M24.9817 29.9099H33.5465V24.149C29.8489 18.2828 26.2805 15.5189 23.2568 14.7143C13.5089 12.1211 9.42692 29.9099 24.9817 29.9099Z" fill="#FF9900"/>
<path d="M24.9817 29.9099H28.6926C15.308 29.9099 16.4629 16.739 23.2568 14.7143C13.5089 12.1211 9.42692 29.9099 24.9817 29.9099Z" fill="#CA7900"/>
<path d="M42.8146 29.91H33.1406V26.0822C33.1406 23.4161 35.3019 21.2549 37.968 21.2549H37.9874C40.6535 21.2549 42.8147 23.4161 42.8147 26.0822L42.8146 29.91Z" fill="#CA7900"/>
<path d="M63.2114 37.332V75.2578C63.2114 75.6675 62.8789 76 62.4692 76H13.4849C13.0752 76 12.7427 75.6675 12.7427 75.2578V37.332H63.2114Z" fill="#FFC54B"/>
<path d="M63.2114 37.332V75.2578C63.2114 75.6675 62.8789 76 62.4692 76H13.4849C13.0752 76 12.7427 75.6675 12.7427 75.2578V73.0312H57.7533C59.0462 73.0312 60.0942 71.9833 60.0942 70.6904V44.7836C60.0942 43.4907 59.0462 42.4427 57.7533 42.4427H12.7427V37.332H63.2114Z" fill="#FEAC38"/>
<path d="M66.9374 30.6627V38.7229C66.9374 39.1385 66.6004 39.474 66.1863 39.474H9.76818C9.35404 39.474 9.01709 39.1385 9.01709 38.7229V30.6627C9.01709 30.2471 9.35404 29.9102 9.76818 29.9102H34.2648L37.9772 31.3945L41.6896 29.9102H66.1863C66.6004 29.9102 66.9374 30.2471 66.9374 30.6627Z" fill="#FFE8A7"/>
<path d="M66.9374 34.2695V38.7227C66.9374 39.1383 66.6004 39.4737 66.1863 39.4737H9.76818C9.35404 39.4737 9.01709 39.1383 9.01709 38.7227V34.2695C9.01709 34.6852 9.35404 35.0206 9.76818 35.0206H66.1863C66.6004 35.0206 66.9374 34.6852 66.9374 34.2695Z" fill="#FFE26F"/>
<path d="M12.7427 53.915H63.2114V61.3369H12.7427V53.915Z" fill="#CA7900"/>
<path d="M34.2646 29.9102H41.6895V76H34.2646V29.9102Z" fill="#FF9900"/>
<path d="M34.2646 39.4727H41.6895V42.4414H34.2646V39.4727Z" fill="#CA7900"/>
<path d="M34.2646 73.0312H41.6895V76H34.2646V73.0312Z" fill="#CA7900"/>
<path d="M44.7779 7.04187C41.5069 7.04187 38.8457 4.38232 38.8457 1.11328C38.8457 0.498304 38.3473 0 37.7324 0C37.1176 0 36.6192 0.498304 36.6192 1.11328C36.6192 4.38232 33.958 7.04187 30.687 7.04187C30.0722 7.04187 29.5737 7.54017 29.5737 8.15515C29.5737 8.77013 30.0722 9.26843 30.687 9.26843C33.9581 9.26843 36.6192 11.928 36.6192 15.1969C36.6192 15.8118 37.1176 16.3102 37.7324 16.3102C38.3473 16.3102 38.8457 15.8118 38.8457 15.1969C38.8457 11.928 41.5069 9.26843 44.7779 9.26843C45.3929 9.26843 45.8912 8.77013 45.8912 8.15515C45.8912 7.54017 45.3927 7.04187 44.7779 7.04187Z" fill="#FFE26F"/>
<path d="M15.2043 7.04187C11.9332 7.04187 9.272 4.38232 9.272 1.11328C9.272 0.498304 8.77354 0 8.15871 0C7.54389 0 7.04543 0.498304 7.04543 1.11328C7.04543 4.38232 4.38425 7.04187 1.11328 7.04187C0.498453 7.04187 0 7.54017 0 8.15515C0 8.77013 0.498453 9.26843 1.11328 9.26843C4.3844 9.26843 7.04543 11.928 7.04543 15.1969C7.04543 15.8118 7.54389 16.3102 8.15871 16.3102C8.77354 16.3102 9.272 15.8118 9.272 15.1969C9.272 11.928 11.9332 9.26843 15.2043 9.26843C15.8191 9.26843 16.3176 8.77013 16.3176 8.15515C16.3176 7.54017 15.8191 7.04187 15.2043 7.04187Z" fill="#FFE26F"/>
<path d="M74.3508 7.04187C71.0797 7.04187 68.4185 4.38232 68.4185 1.11328C68.4185 0.498304 67.9202 0 67.3052 0C66.6902 0 66.1919 0.498304 66.1919 1.11328C66.1919 4.38232 63.5307 7.04187 60.2598 7.04187C59.6448 7.04187 59.1465 7.54017 59.1465 8.15515C59.1465 8.77013 59.6448 9.26843 60.2598 9.26843C63.5307 9.26843 66.1919 11.928 66.1919 15.1969C66.1919 15.8118 66.6902 16.3102 67.3052 16.3102C67.9202 16.3102 68.4185 15.8118 68.4185 15.1969C68.4185 11.928 71.0797 9.26843 74.3508 9.26843C74.9658 9.26843 75.4641 8.77013 75.4641 8.15515C75.4641 7.54017 74.9658 7.04187 74.3508 7.04187Z" fill="#FFE26F"/>
<path d="M60.0942 53.915H63.2114V61.3369H60.0942V53.915Z" fill="#CA7900"/>
</svg>
