<svg width="33" height="33" viewBox="0 0 33 33" fill="none" xmlns="http://www.w3.org/2000/svg">
<path d="M30.5141 14.5017C30.649 14.5091 30.7842 14.4973 30.9158 14.4666C31.5745 14.304 32.0331 13.7666 32.0306 13.0903C32.0222 12.4173 31.9729 11.7454 31.8829 11.0784C31.801 10.398 31.6809 9.72278 31.5232 9.05585C31.3268 8.26072 30.5848 7.56693 29.7872 7.41866C29.5488 7.37549 26.4177 7.04706 23.1965 6.8819C23.6534 6.45603 24.0033 5.92835 24.2178 5.34176C24.4323 4.75518 24.5053 4.12625 24.4309 3.50613C24.3565 2.88601 24.1368 2.2922 23.7897 1.77298C23.4426 1.25377 22.9778 0.823809 22.4332 0.518069C21.8885 0.212329 21.2795 0.03944 20.6554 0.0134611C20.0314 -0.0125177 19.4101 0.109147 18.8419 0.368561C18.2738 0.627976 17.7749 1.01782 17.3858 1.50638C16.9967 1.99495 16.7284 2.56845 16.6027 3.18024L16.0022 6.55846L15.4066 3.20213L15.4022 3.17899C15.2774 2.56592 15.0095 1.99102 14.6203 1.50113C14.2312 1.01124 13.7318 0.620227 13.1628 0.359953C12.5939 0.0996803 11.9715 -0.0224887 11.3464 0.00340232C10.7213 0.0292933 10.1112 0.202512 9.56569 0.508941C9.02022 0.815371 8.55487 1.24634 8.20756 1.76673C7.86025 2.28713 7.64081 2.88221 7.56711 3.5035C7.49341 4.12479 7.56755 4.75471 7.78348 5.34191C7.99941 5.92911 8.35102 6.45699 8.80966 6.88252C5.59722 7.04831 2.48112 7.37487 2.24089 7.41804C1.44138 7.5663 0.701295 8.26009 0.504857 9.05522C0.34722 9.72215 0.227125 10.3974 0.145139 11.0778C0.0559419 11.7453 0.0074727 12.4176 0 13.091C0 13.7685 0.459189 14.3071 1.1217 14.4673C1.24775 14.4964 1.37719 14.5082 1.50644 14.5023C2.63251 14.4623 10.0584 14.2101 16.9587 14.2101C23.7483 14.2126 29.5063 14.456 30.5141 14.5017ZM20.4933 1.7814C21.0372 1.78161 21.5618 1.98345 21.9655 2.3479C22.3693 2.71236 22.6236 3.21354 22.6793 3.75459C22.735 4.29565 22.5881 4.83814 22.2671 5.27721C21.9461 5.71629 21.4737 6.02077 20.9412 6.13181L17.7782 6.69484L18.3413 3.52807C18.4463 3.03478 18.7171 2.59235 19.1087 2.27453C19.5003 1.9567 19.989 1.78266 20.4933 1.7814ZM11.511 1.7814C12.0151 1.78222 12.5037 1.95568 12.8955 2.27292C13.2873 2.59015 13.5586 3.03202 13.6643 3.52494L14.2273 6.69172L11.0637 6.12868C10.5345 6.01461 10.066 5.70929 9.748 5.27124C9.42996 4.83318 9.28473 4.29318 9.34014 3.75469C9.39555 3.2162 9.64769 2.71708 10.0483 2.35297C10.4488 1.98885 10.9697 1.78533 11.511 1.7814Z" fill="black"/>
<path d="M12.4453 19.8873C12.3135 19.8886 12.1836 19.9176 12.0638 19.9725C11.9441 20.0273 11.8372 20.1068 11.7502 20.2057C11.5561 20.4173 11.4489 20.6943 11.4499 20.9814C11.4405 21.3168 11.5244 21.5801 11.7002 21.7816C11.7886 21.8766 11.896 21.952 12.0155 22.0028C12.135 22.0536 12.2638 22.0788 12.3936 22.0765C12.5234 22.0743 12.6513 22.0447 12.769 21.9898C12.8866 21.9349 12.9914 21.8559 13.0765 21.7578C13.2604 21.5476 13.3542 21.2786 13.3611 20.952C13.3674 20.6392 13.2842 20.3802 13.1109 20.1788C13.0301 20.0819 12.928 20.0051 12.8124 19.9545C12.6969 19.9039 12.5712 19.8809 12.4453 19.8873Z" fill="black"/>
<path d="M19.6216 25.6647C19.4912 25.6623 19.3618 25.6887 19.2429 25.7421C19.1239 25.7956 19.0182 25.8747 18.9334 25.9738C18.7495 26.1771 18.6556 26.4398 18.6563 26.762C18.6563 27.1048 18.747 27.3763 18.9265 27.584C19.0114 27.684 19.1176 27.7635 19.2374 27.8169C19.3572 27.8703 19.4874 27.8961 19.6184 27.8925C19.7483 27.8944 19.8769 27.8667 19.9944 27.8114C20.1119 27.7561 20.2153 27.6747 20.2966 27.5734C20.4767 27.3607 20.5687 27.0898 20.57 26.7601C20.582 26.4738 20.4865 26.1933 20.3022 25.9738C20.2183 25.8756 20.1138 25.797 19.9962 25.7436C19.8786 25.6902 19.7507 25.6633 19.6216 25.6647Z" fill="black"/>
<path d="M16.0155 15.8301C9.08573 15.8301 2.54761 16.0178 2.54761 16.0178C2.43992 16.0199 2.33681 16.0617 2.25799 16.1351C2.17916 16.2085 2.13015 16.3084 2.12033 16.4156C1.99254 17.8606 1.94346 19.3114 1.97331 20.7617C2.02336 23.4198 2.2736 25.3661 2.52947 26.7912C2.97427 29.1503 5.10443 31.1941 7.42665 31.5557C8.83612 31.7872 13.4036 32.0612 16.0155 32.0374C18.6273 32.0612 23.1948 31.7872 24.6043 31.5557C26.9265 31.1941 29.0567 29.1503 29.5015 26.7912C29.7573 25.3661 30.0076 23.4198 30.0576 20.7617C30.0875 19.3114 30.0384 17.8606 29.9106 16.4156C29.9008 16.3084 29.8518 16.2085 29.773 16.1351C29.6941 16.0617 29.591 16.0199 29.4833 16.0178C29.4833 16.0178 22.9452 15.8301 16.0155 15.8301ZM10.4827 22.9575C9.9697 22.4295 9.72321 21.7839 9.74949 21.0144C9.77576 20.2449 10.0698 19.5999 10.6203 19.0475C11.1708 18.4951 11.8021 18.1986 12.5134 18.1767C13.2247 18.1548 13.8315 18.4107 14.3339 18.9512C14.8362 19.4917 15.0883 20.1561 15.0771 20.9337C15.0658 21.7374 14.7978 22.4089 14.2732 22.9481C14.0277 23.2026 13.7337 23.4052 13.4085 23.5438C13.0832 23.6825 12.7335 23.7544 12.3799 23.7552C12.0264 23.7561 11.6763 23.686 11.3503 23.5489C11.0244 23.4119 10.7294 23.2108 10.4827 22.9575ZM19.0384 18.2793C19.6952 18.2793 20.0919 19.0988 19.7102 19.6906C17.8016 22.6704 15.7953 25.6764 13.9741 28.5923C13.7239 28.9895 13.2234 29.0733 12.8406 28.7843C12.4577 28.4953 12.347 27.9448 12.596 27.55C14.4246 24.6523 16.4377 21.6506 18.3515 18.6615C18.4278 18.5483 18.5298 18.4546 18.6492 18.3882C18.7685 18.3218 18.9019 18.2845 19.0384 18.2793ZM21.4782 28.7749C20.9577 29.3211 20.3321 29.5976 19.5964 29.6026C18.8732 29.6026 18.2576 29.3267 17.7421 28.7774C17.2266 28.2282 16.962 27.5513 16.9539 26.7561C16.9457 25.961 17.2072 25.3029 17.7365 24.7542C18.2657 24.2056 18.8938 23.9241 19.6202 23.9241C20.3465 23.9241 20.979 24.1999 21.5038 24.7523C21.7612 25.0161 21.9627 25.3291 22.0963 25.6725C22.2299 26.0159 22.2929 26.3828 22.2815 26.7511C22.2714 27.5556 22.0012 28.2294 21.4788 28.7756L21.4782 28.7749Z" fill="black"/>
</svg>
