<svg width="315" height="339" viewBox="0 0 315 339" fill="none" xmlns="http://www.w3.org/2000/svg">
<path d="M266.046 1.99065L60.6764 80.9643C58.8436 81.6691 57.9137 83.7223 58.6088 85.5298L66.3427 105.642L278.373 24.1063L270.639 3.99453C269.944 2.18704 267.878 1.28585 266.046 1.99065Z" fill="#FF9900"/>
<path d="M145.399 67.1444C143.566 67.8492 140.982 67.2384 139.656 65.7906L134.045 59.6687C132.719 58.2209 130.126 57.6137 128.293 58.3185L75.9317 78.4536C74.0989 79.1584 72.5897 81.3434 72.5756 83.3064L72.5117 91.6107C72.4884 93.5773 70.9791 95.7622 69.1463 96.467L66.9599 97.3078C65.1271 98.0126 64.2062 100.089 64.9122 101.925L101.046 195.89C101.752 197.726 103.827 198.651 105.66 197.946L311.029 118.972C312.862 118.268 313.783 116.191 313.077 114.355L276.943 20.3896C276.237 18.5537 274.162 17.6293 272.329 18.3341L145.399 67.1444Z" fill="#EFEFEF"/>
<g clip-path="url(#clip0_18229_2557)">
<path d="M130.034 68.6751C129.92 68.9331 129.613 69.0512 129.346 68.9399C129.088 68.8251 128.97 68.5175 129.081 68.2503L131.494 62.8078C131.609 62.5499 131.916 62.4318 132.183 62.543C132.441 62.6579 132.559 62.9654 132.448 63.2327L130.034 68.6751Z" fill="#5E5E5E"/>
<path d="M127.834 65.0072C127.576 64.8924 127.457 64.5848 127.568 64.3176C127.683 64.0596 127.99 63.9416 128.257 64.0528L133.695 66.4757C133.953 66.5906 134.071 66.8981 133.96 67.1654C133.846 67.4233 133.539 67.5414 133.272 67.4301L127.834 65.0072Z" fill="#5E5E5E"/>
</g>
<g clip-path="url(#clip1_18229_2557)">
<path d="M262.228 14.7904C262.113 15.0483 261.806 15.1664 261.539 15.0551C261.281 14.9403 261.163 14.6328 261.274 14.3655L263.688 8.92302C263.802 8.66508 264.109 8.54702 264.376 8.65827C264.634 8.7731 264.752 9.08064 264.641 9.3479L262.228 14.7904Z" fill="white"/>
<path d="M260.037 11.1185C259.779 11.0037 259.661 10.6962 259.771 10.4289C259.886 10.171 260.193 10.0529 260.46 10.1641L265.898 12.5871C266.165 12.6983 266.274 13.0094 266.164 13.2767C266.049 13.5346 265.742 13.6527 265.475 13.5414L260.037 11.1185Z" fill="white"/>
<path d="M255.795 12.2575L251.711 13.8281L253.284 17.9193L257.368 16.3487L255.795 12.2575Z" stroke="white" stroke-miterlimit="10" stroke-linecap="round" stroke-linejoin="round"/>
<path d="M248.957 19.5827L244.873 21.1533" stroke="white" stroke-miterlimit="10" stroke-linecap="round" stroke-linejoin="round"/>
</g>
<g clip-path="url(#clip2_18229_2557)">
<path d="M272.761 28.1601C272.908 28.5422 272.723 28.9771 272.332 29.1274L264.359 32.1935C263.968 32.3437 263.543 32.1543 263.392 31.7629C263.245 31.3808 263.434 30.9552 263.825 30.8049L271.807 27.7353C272.179 27.5922 272.614 27.7781 272.761 28.1601Z" fill="#8F8F8F"/>
<path d="M274.151 31.7759C274.298 32.158 274.113 32.5929 273.722 32.7432L265.749 35.8092C265.358 35.9595 264.933 35.77 264.782 35.3786C264.636 34.9965 264.821 34.5616 265.211 34.4114L273.194 31.3417C273.57 31.2079 274.004 31.3938 274.151 31.7759Z" fill="#8F8F8F"/>
<path d="M275.542 35.3916C275.689 35.7737 275.504 36.2086 275.113 36.3589L267.14 39.4249C266.749 39.5752 266.32 39.3764 266.173 38.9943C266.026 38.6122 266.215 38.1866 266.606 38.0364L274.589 34.9667C274.961 34.8236 275.395 35.0095 275.542 35.3916Z" fill="#8F8F8F"/>
</g>
<g clip-path="url(#clip3_18229_2557)">
<path d="M156.323 110.28C155.262 109.807 154.784 108.565 155.255 107.503C155.726 106.441 156.966 105.964 158.027 106.437L172.547 112.9C173.608 113.372 174.086 114.615 173.617 115.684C173.146 116.746 171.906 117.223 170.845 116.75L156.323 110.28Z" fill="black"/>
<path d="M169.578 105.182C170.049 104.121 169.572 102.878 168.51 102.405C167.442 101.935 166.209 102.41 165.731 103.474L159.29 117.997C158.819 119.059 159.304 120.299 160.36 120.782C161.421 121.254 162.662 120.777 163.133 119.716L169.578 105.182Z" fill="black"/>
<path d="M202.1 92.6765C201.039 92.2038 200.561 90.9614 201.032 89.8995C201.51 88.8348 202.743 88.3606 203.812 88.8306L218.324 95.296C219.385 95.7688 219.856 97.0139 219.395 98.0803C218.924 99.1423 217.684 99.6192 216.622 99.1465L202.1 92.6765Z" fill="black"/>
<path d="M215.356 87.5788C215.827 86.5169 215.35 85.2746 214.289 84.8018C213.227 84.3291 211.987 84.806 211.516 85.8679L205.068 100.394C204.597 101.456 205.074 102.698 206.138 103.178C207.2 103.651 208.44 103.174 208.911 102.112L215.356 87.5788Z" fill="black"/>
</g>
<g clip-path="url(#clip4_18229_2557)">
<path d="M209.739 127.318C211.125 126.785 211.811 125.238 211.277 123.849C210.747 122.47 209.197 121.771 207.811 122.305L188.915 129.571C187.529 130.104 186.846 131.661 187.38 133.049C187.91 134.429 189.457 135.118 190.846 134.594L209.742 127.328L209.739 127.318Z" fill="black"/>
</g>
<g clip-path="url(#clip5_18229_2557)">
<path d="M84.2424 105.176C83.9421 105.062 83.6015 105.204 83.4941 105.508L83.1968 106.29C82.046 103.908 79.2791 102.739 76.8229 103.684C74.2272 104.682 72.9477 107.659 73.9708 110.319C74.9939 112.98 77.9383 114.333 80.534 113.334C80.8317 113.22 80.9783 112.879 80.8609 112.574C80.7436 112.269 80.4063 112.114 80.1086 112.228C78.1083 112.997 75.8477 111.951 75.063 109.91C74.2746 107.86 75.2646 105.575 77.2556 104.809C79.1256 104.09 81.2255 104.968 82.1247 106.779L81.3481 106.454C81.0535 106.326 80.7166 106.478 80.5999 106.785C80.4832 107.093 80.6338 107.429 80.9378 107.553L83.0359 108.399C83.175 108.455 83.3235 108.452 83.4538 108.402C83.4631 108.399 83.4724 108.395 83.4817 108.392C83.6176 108.328 83.7315 108.208 83.7842 108.067L84.5803 105.944C84.6913 105.65 84.5463 105.3 84.2424 105.176Z" fill="#8F8F8F"/>
</g>
<g clip-path="url(#clip6_18229_2557)">
<path d="M263.184 42.5065C263.424 43.1309 263.11 43.8402 262.487 44.0799L91.513 109.827C90.8897 110.067 90.1809 109.751 89.9408 109.126L85.5759 97.7756C85.3358 97.1512 85.6504 96.4419 86.2737 96.2022L257.238 30.4588C257.861 30.2191 258.57 30.5349 258.81 31.1593L263.175 42.5101L263.184 42.5065Z" fill="#F7F7F7"/>
</g>
<g clip-path="url(#clip7_18229_2557)">
<path d="M67.6279 158.148C62.1602 158.509 57.4289 154.388 57.0686 148.921L55.3609 123.525L16.2568 102.955C11.4001 100.401 9.53576 94.4005 12.0894 89.5595C14.6431 84.7028 20.6278 82.8385 25.4845 85.3922L69.4922 108.532C72.5473 110.13 74.5369 113.216 74.7719 116.647L76.8556 147.589C77.2159 153.057 73.0956 157.788 67.6279 158.148Z" fill="#D0D0D0"/>
<path d="M191.84 273.763L71.0969 281.878C65.6292 282.238 60.8979 278.118 60.5376 272.65C60.1772 267.183 64.2976 262.451 69.7653 262.091L190.509 253.976C194.284 253.725 197.543 251.391 199 247.913L236.741 146.298C238.652 141.16 244.371 138.543 249.494 140.455C254.632 142.366 257.249 148.069 255.337 153.207L217.455 255.198C212.912 266.023 203.152 272.995 191.84 273.763Z" fill="#D0D0D0"/>
<path d="M224.937 247.01L84.0937 256.473C73.1583 257.209 63.6956 248.937 62.9593 238.002L56.9746 148.905L247.325 136.105C262.036 135.118 272.658 149.955 266.956 163.569L241.92 234.853C239.006 241.809 232.426 246.509 224.937 247.01Z" fill="#B4B4B4"/>
<path d="M237.642 171.574L88.981 181.57C86.2393 181.758 83.8893 179.69 83.7013 176.948C83.5133 174.222 85.5813 171.856 88.323 171.668L236.984 161.673C239.726 161.485 242.076 163.553 242.264 166.295C242.452 169.036 240.384 171.402 237.642 171.574Z" fill="white"/>
<path d="M219.515 197.659L90.6568 206.323C87.9151 206.511 85.5651 204.443 85.3771 201.701C85.1891 198.96 87.2571 196.61 89.9988 196.422L218.857 187.758C221.599 187.57 223.949 189.638 224.137 192.38C224.309 195.106 222.241 197.471 219.515 197.659Z" fill="white"/>
<path d="M200.858 223.776L92.3189 231.076C89.5772 231.264 87.2272 229.196 87.0392 226.455C86.8512 223.729 88.9192 221.363 91.6609 221.175L200.2 213.874C202.942 213.686 205.292 215.754 205.48 218.496C205.652 221.222 203.6 223.588 200.858 223.776Z" fill="white"/>
<path d="M113.341 293.37C113.797 300.143 108.673 306.004 101.9 306.46C95.1267 306.916 89.2656 301.792 88.8095 295.019C88.3534 288.246 93.4771 282.385 100.25 281.929C107.033 281.473 112.885 286.596 113.341 293.37Z" fill="#D0D0D0"/>
<path d="M107.219 293.777C107.442 297.164 104.89 300.094 101.503 300.317C98.1166 300.541 95.186 297.988 94.9628 294.602C94.7396 291.215 97.2917 288.285 100.678 288.061C104.055 287.838 106.986 290.4 107.219 293.777Z" fill="white"/>
<path d="M182.8 289.216C183.256 295.99 178.132 301.851 171.359 302.307C164.586 302.763 158.725 297.639 158.268 290.866C157.812 284.093 162.936 278.231 169.709 277.775C176.492 277.319 182.354 282.443 182.8 289.216Z" fill="#D0D0D0"/>
<path d="M176.678 289.624C176.901 293.011 174.349 295.941 170.962 296.164C167.576 296.387 164.645 293.835 164.422 290.449C164.199 287.062 166.751 284.131 170.137 283.908C173.514 283.675 176.445 286.237 176.678 289.624Z" fill="white"/>
</g>
<defs>
<clipPath id="clip0_18229_2557">
<rect width="5.24309" height="5.25185" fill="white" transform="translate(127.375 64.2314) rotate(-21.034)"/>
</clipPath>
<clipPath id="clip1_18229_2557">
<rect width="23.3447" height="5.38165" fill="white" transform="translate(242.656 16.7754) rotate(-21.034)"/>
</clipPath>
<clipPath id="clip2_18229_2557">
<rect width="10.0376" height="9.23566" fill="white" transform="translate(263.127 31.0732) rotate(-21.034)"/>
</clipPath>
<clipPath id="clip3_18229_2557">
<rect width="64.1665" height="15.4636" fill="white" transform="translate(154.457 107.147) rotate(-21.034)"/>
</clipPath>
<clipPath id="clip4_18229_2557">
<rect width="25.6074" height="5.37166" fill="white" transform="translate(186.412 130.533) rotate(-21.034)"/>
</clipPath>
<clipPath id="clip5_18229_2557">
<rect width="11.6225" height="10.3293" fill="white" transform="translate(72.1152 105.494) rotate(-21.034)"/>
</clipPath>
<clipPath id="clip6_18229_2557">
<rect x="85.1387" y="96.6387" width="185.611" height="14.5973" rx="2" transform="rotate(-21.034 85.1387 96.6387)" fill="white"/>
</clipPath>
<clipPath id="clip7_18229_2557">
<rect width="257.561" height="244.542" fill="white" transform="translate(0.945312 94.248)"/>
</clipPath>
</defs>
</svg>
