<svg width="26" height="25" viewBox="0 0 26 25" fill="none" xmlns="http://www.w3.org/2000/svg">
<mask id="path-1-outside-1_19804_2775" maskUnits="userSpaceOnUse" x="0" y="0" width="26" height="25" fill="black">
<rect fill="white" width="26" height="25"/>
<path d="M24.8665 7.01986L23.0442 2.12336C22.9205 1.79418 22.6997 1.51041 22.4109 1.30976C22.1221 1.10911 21.7792 1.00107 21.4275 1H4.6257C4.27406 1.00107 3.93106 1.10912 3.64229 1.30979C3.35353 1.51047 3.13266 1.79426 3.00905 2.12347L1.187 7.01996C0.960596 7.62981 0.939033 8.27707 1.12636 8.84255C1.29162 9.34188 1.56913 9.79668 1.93757 10.172C2.306 10.5474 2.75557 10.8333 3.25173 11.0079V21.125C3.25269 21.8872 3.55589 22.6179 4.09484 23.1569C4.63379 23.6958 5.36448 23.999 6.12668 24H19.9268C20.689 23.999 21.4197 23.6958 21.9586 23.1569C22.4976 22.6179 22.8008 21.8872 22.8018 21.125V11.0078C23.2979 10.8332 23.7475 10.5473 24.1159 10.1719C24.4844 9.79658 24.7619 9.34177 24.9271 8.84244C25.1147 8.27696 25.0931 7.6297 24.8665 7.01986ZM18.1405 6.4533C18.1813 6.6841 18.2018 6.91804 18.2018 7.15241V7.75617C18.2032 8.05914 18.1448 8.35943 18.0299 8.63976C17.915 8.9201 17.7458 9.17497 17.532 9.38973C17.3183 9.60449 17.0643 9.7749 16.7845 9.89119C16.5047 10.0075 16.2047 10.0673 15.9017 10.0673C15.5988 10.0673 15.2988 10.0075 15.019 9.89119C14.7392 9.7749 14.4852 9.60449 14.2714 9.38973C14.0577 9.17497 13.8885 8.9201 13.7736 8.63976C13.6587 8.35943 13.6003 8.05914 13.6017 7.75617V2.14988H17.3811L18.1405 6.4533ZM7.85169 7.15241C7.85165 6.91795 7.87212 6.68393 7.91287 6.45303L8.67242 2.14988H12.4518V7.75617C12.4518 8.05821 12.3923 8.3573 12.2767 8.63635C12.1611 8.9154 11.9917 9.16896 11.7781 9.38253C11.5645 9.59611 11.311 9.76553 11.0319 9.88112C10.7529 9.99671 10.4538 10.0562 10.1517 10.0562C9.84968 10.0562 9.55059 9.99671 9.27154 9.88112C8.99249 9.76553 8.73893 9.59611 8.52535 9.38253C8.31178 9.16896 8.14236 8.9154 8.02677 8.63635C7.91118 8.3573 7.85169 8.05821 7.85169 7.75617V7.15241ZM2.21791 8.48056C2.11236 8.16251 2.12918 7.78608 2.26481 7.42071L4.08685 2.52448C4.12809 2.41472 4.20174 2.32011 4.29803 2.25321C4.39431 2.18631 4.50867 2.15029 4.62592 2.14994H7.50453L6.7803 6.25341C6.72799 6.55031 6.70169 6.85121 6.7017 7.15268V7.75617C6.70162 8.30263 6.50701 8.83122 6.15273 9.24728C5.79844 9.66334 5.30761 9.9397 4.76814 10.0269C4.22867 10.114 3.67579 10.0063 3.20851 9.72295C2.74123 9.43962 2.39007 8.9992 2.21791 8.48056ZM21.6518 21.125C21.6513 21.5823 21.4694 22.0208 21.146 22.3442C20.8226 22.6676 20.3841 22.8495 19.9268 22.85H6.12668C5.66933 22.8495 5.23086 22.6676 4.90746 22.3442C4.58407 22.0208 4.40217 21.5823 4.40167 21.125V11.2062C4.97115 11.206 5.53173 11.0648 6.03338 10.7953C6.53504 10.5257 6.96217 10.1362 7.27667 9.66144C7.59102 10.1363 8.01813 10.526 8.51982 10.7956C9.02151 11.0651 9.58217 11.2062 10.1517 11.2062C10.7212 11.2062 11.2819 11.0651 11.7836 10.7956C12.2853 10.526 12.7124 10.1363 13.0267 9.66144C13.3411 10.1363 13.7682 10.526 14.2699 10.7956C14.7716 11.0651 15.3322 11.2062 15.9017 11.2062C16.4713 11.2062 17.0319 11.0651 17.5336 10.7956C18.0353 10.526 18.4624 10.1363 18.7768 9.66144C19.0913 10.1362 19.5184 10.5257 20.0201 10.7953C20.5217 11.0648 21.0823 11.206 21.6518 11.2062V21.125ZM23.8355 8.48056C23.6634 8.9992 23.3122 9.43962 22.8449 9.72295C22.3777 10.0063 21.8248 10.114 21.2853 10.0269C20.7458 9.9397 20.255 9.66334 19.9007 9.24728C19.5464 8.83122 19.3518 8.30263 19.3517 7.75617V7.15241C19.3518 6.85094 19.3255 6.55004 19.2731 6.25314L18.5489 2.14988H21.4275C21.5447 2.15023 21.6591 2.18623 21.7554 2.2531C21.8517 2.31997 21.9253 2.41454 21.9666 2.52426L23.7882 7.42049C23.9243 7.78608 23.9411 8.16241 23.8355 8.48056Z"/>
<path d="M17.8332 15.0546L14.9882 14.4386L13.5229 11.9231C13.4723 11.8362 13.3998 11.764 13.3126 11.7139C13.2254 11.6638 13.1266 11.6374 13.026 11.6374C12.9254 11.6374 12.8266 11.6638 12.7394 11.7139C12.6522 11.764 12.5797 11.8362 12.5291 11.9231L11.0638 14.4386L8.21854 15.0546C8.12021 15.0758 8.02918 15.1225 7.95454 15.1899C7.87989 15.2574 7.82425 15.3432 7.79315 15.4389C7.76205 15.5346 7.75659 15.6367 7.77732 15.7351C7.79805 15.8336 7.84424 15.9249 7.91127 15.9999L9.85137 18.1709L9.55796 21.0672C9.54784 21.1673 9.56415 21.2682 9.60524 21.36C9.64634 21.4518 9.7108 21.5312 9.79217 21.5903C9.87355 21.6494 9.969 21.6861 10.069 21.6968C10.169 21.7075 10.2701 21.6917 10.3621 21.6512L13.026 20.4772L15.6899 21.6511C15.7819 21.6916 15.883 21.7074 15.983 21.6967C16.083 21.686 16.1784 21.6493 16.2598 21.5902C16.3412 21.5311 16.4056 21.4517 16.4467 21.3599C16.4878 21.2681 16.5041 21.1672 16.494 21.0671L16.2006 18.1709L18.1404 16C18.2074 15.925 18.2536 15.8337 18.2743 15.7353C18.295 15.6368 18.2896 15.5347 18.2585 15.439C18.2274 15.3433 18.1717 15.2575 18.0971 15.19C18.0225 15.1226 17.9315 15.0758 17.8332 15.0546ZM15.1744 17.5932C15.1212 17.6528 15.081 17.7228 15.0563 17.7987C15.0316 17.8746 15.023 17.9549 15.0309 18.0343L15.2502 20.2007L13.2578 19.3227C13.1847 19.2905 13.1058 19.2739 13.026 19.2739C12.9462 19.2739 12.8672 19.2905 12.7942 19.3227L10.8018 20.2006L11.0211 18.0343C11.029 17.9549 11.0204 17.8746 10.9957 17.7987C10.971 17.7228 10.9308 17.6528 10.8776 17.5932L9.42686 15.9698L11.5548 15.5091C11.6328 15.4922 11.7065 15.4592 11.7711 15.4123C11.8358 15.3653 11.8899 15.3055 11.9302 15.2365L13.026 13.3548L14.1218 15.2364C14.1621 15.3054 14.2162 15.3653 14.2808 15.4122C14.3455 15.4591 14.4191 15.4921 14.4972 15.509L16.6251 15.9698L15.1744 17.5932Z"/>
</mask>
<path d="M24.8665 7.01986L23.0442 2.12336C22.9205 1.79418 22.6997 1.51041 22.4109 1.30976C22.1221 1.10911 21.7792 1.00107 21.4275 1H4.6257C4.27406 1.00107 3.93106 1.10912 3.64229 1.30979C3.35353 1.51047 3.13266 1.79426 3.00905 2.12347L1.187 7.01996C0.960596 7.62981 0.939033 8.27707 1.12636 8.84255C1.29162 9.34188 1.56913 9.79668 1.93757 10.172C2.306 10.5474 2.75557 10.8333 3.25173 11.0079V21.125C3.25269 21.8872 3.55589 22.6179 4.09484 23.1569C4.63379 23.6958 5.36448 23.999 6.12668 24H19.9268C20.689 23.999 21.4197 23.6958 21.9586 23.1569C22.4976 22.6179 22.8008 21.8872 22.8018 21.125V11.0078C23.2979 10.8332 23.7475 10.5473 24.1159 10.1719C24.4844 9.79658 24.7619 9.34177 24.9271 8.84244C25.1147 8.27696 25.0931 7.6297 24.8665 7.01986ZM18.1405 6.4533C18.1813 6.6841 18.2018 6.91804 18.2018 7.15241V7.75617C18.2032 8.05914 18.1448 8.35943 18.0299 8.63976C17.915 8.9201 17.7458 9.17497 17.532 9.38973C17.3183 9.60449 17.0643 9.7749 16.7845 9.89119C16.5047 10.0075 16.2047 10.0673 15.9017 10.0673C15.5988 10.0673 15.2988 10.0075 15.019 9.89119C14.7392 9.7749 14.4852 9.60449 14.2714 9.38973C14.0577 9.17497 13.8885 8.9201 13.7736 8.63976C13.6587 8.35943 13.6003 8.05914 13.6017 7.75617V2.14988H17.3811L18.1405 6.4533ZM7.85169 7.15241C7.85165 6.91795 7.87212 6.68393 7.91287 6.45303L8.67242 2.14988H12.4518V7.75617C12.4518 8.05821 12.3923 8.3573 12.2767 8.63635C12.1611 8.9154 11.9917 9.16896 11.7781 9.38253C11.5645 9.59611 11.311 9.76553 11.0319 9.88112C10.7529 9.99671 10.4538 10.0562 10.1517 10.0562C9.84968 10.0562 9.55059 9.99671 9.27154 9.88112C8.99249 9.76553 8.73893 9.59611 8.52535 9.38253C8.31178 9.16896 8.14236 8.9154 8.02677 8.63635C7.91118 8.3573 7.85169 8.05821 7.85169 7.75617V7.15241ZM2.21791 8.48056C2.11236 8.16251 2.12918 7.78608 2.26481 7.42071L4.08685 2.52448C4.12809 2.41472 4.20174 2.32011 4.29803 2.25321C4.39431 2.18631 4.50867 2.15029 4.62592 2.14994H7.50453L6.7803 6.25341C6.72799 6.55031 6.70169 6.85121 6.7017 7.15268V7.75617C6.70162 8.30263 6.50701 8.83122 6.15273 9.24728C5.79844 9.66334 5.30761 9.9397 4.76814 10.0269C4.22867 10.114 3.67579 10.0063 3.20851 9.72295C2.74123 9.43962 2.39007 8.9992 2.21791 8.48056ZM21.6518 21.125C21.6513 21.5823 21.4694 22.0208 21.146 22.3442C20.8226 22.6676 20.3841 22.8495 19.9268 22.85H6.12668C5.66933 22.8495 5.23086 22.6676 4.90746 22.3442C4.58407 22.0208 4.40217 21.5823 4.40167 21.125V11.2062C4.97115 11.206 5.53173 11.0648 6.03338 10.7953C6.53504 10.5257 6.96217 10.1362 7.27667 9.66144C7.59102 10.1363 8.01813 10.526 8.51982 10.7956C9.02151 11.0651 9.58217 11.2062 10.1517 11.2062C10.7212 11.2062 11.2819 11.0651 11.7836 10.7956C12.2853 10.526 12.7124 10.1363 13.0267 9.66144C13.3411 10.1363 13.7682 10.526 14.2699 10.7956C14.7716 11.0651 15.3322 11.2062 15.9017 11.2062C16.4713 11.2062 17.0319 11.0651 17.5336 10.7956C18.0353 10.526 18.4624 10.1363 18.7768 9.66144C19.0913 10.1362 19.5184 10.5257 20.0201 10.7953C20.5217 11.0648 21.0823 11.206 21.6518 11.2062V21.125ZM23.8355 8.48056C23.6634 8.9992 23.3122 9.43962 22.8449 9.72295C22.3777 10.0063 21.8248 10.114 21.2853 10.0269C20.7458 9.9397 20.255 9.66334 19.9007 9.24728C19.5464 8.83122 19.3518 8.30263 19.3517 7.75617V7.15241C19.3518 6.85094 19.3255 6.55004 19.2731 6.25314L18.5489 2.14988H21.4275C21.5447 2.15023 21.6591 2.18623 21.7554 2.2531C21.8517 2.31997 21.9253 2.41454 21.9666 2.52426L23.7882 7.42049C23.9243 7.78608 23.9411 8.16241 23.8355 8.48056Z" fill="#989898"/>
<path d="M17.8332 15.0546L14.9882 14.4386L13.5229 11.9231C13.4723 11.8362 13.3998 11.764 13.3126 11.7139C13.2254 11.6638 13.1266 11.6374 13.026 11.6374C12.9254 11.6374 12.8266 11.6638 12.7394 11.7139C12.6522 11.764 12.5797 11.8362 12.5291 11.9231L11.0638 14.4386L8.21854 15.0546C8.12021 15.0758 8.02918 15.1225 7.95454 15.1899C7.87989 15.2574 7.82425 15.3432 7.79315 15.4389C7.76205 15.5346 7.75659 15.6367 7.77732 15.7351C7.79805 15.8336 7.84424 15.9249 7.91127 15.9999L9.85137 18.1709L9.55796 21.0672C9.54784 21.1673 9.56415 21.2682 9.60524 21.36C9.64634 21.4518 9.7108 21.5312 9.79217 21.5903C9.87355 21.6494 9.969 21.6861 10.069 21.6968C10.169 21.7075 10.2701 21.6917 10.3621 21.6512L13.026 20.4772L15.6899 21.6511C15.7819 21.6916 15.883 21.7074 15.983 21.6967C16.083 21.686 16.1784 21.6493 16.2598 21.5902C16.3412 21.5311 16.4056 21.4517 16.4467 21.3599C16.4878 21.2681 16.5041 21.1672 16.494 21.0671L16.2006 18.1709L18.1404 16C18.2074 15.925 18.2536 15.8337 18.2743 15.7353C18.295 15.6368 18.2896 15.5347 18.2585 15.439C18.2274 15.3433 18.1717 15.2575 18.0971 15.19C18.0225 15.1226 17.9315 15.0758 17.8332 15.0546ZM15.1744 17.5932C15.1212 17.6528 15.081 17.7228 15.0563 17.7987C15.0316 17.8746 15.023 17.9549 15.0309 18.0343L15.2502 20.2007L13.2578 19.3227C13.1847 19.2905 13.1058 19.2739 13.026 19.2739C12.9462 19.2739 12.8672 19.2905 12.7942 19.3227L10.8018 20.2006L11.0211 18.0343C11.029 17.9549 11.0204 17.8746 10.9957 17.7987C10.971 17.7228 10.9308 17.6528 10.8776 17.5932L9.42686 15.9698L11.5548 15.5091C11.6328 15.4922 11.7065 15.4592 11.7711 15.4123C11.8358 15.3653 11.8899 15.3055 11.9302 15.2365L13.026 13.3548L14.1218 15.2364C14.1621 15.3054 14.2162 15.3653 14.2808 15.4122C14.3455 15.4591 14.4191 15.4921 14.4972 15.509L16.6251 15.9698L15.1744 17.5932Z" fill="#989898"/>
<path d="M24.8665 7.01986L23.0442 2.12336C22.9205 1.79418 22.6997 1.51041 22.4109 1.30976C22.1221 1.10911 21.7792 1.00107 21.4275 1H4.6257C4.27406 1.00107 3.93106 1.10912 3.64229 1.30979C3.35353 1.51047 3.13266 1.79426 3.00905 2.12347L1.187 7.01996C0.960596 7.62981 0.939033 8.27707 1.12636 8.84255C1.29162 9.34188 1.56913 9.79668 1.93757 10.172C2.306 10.5474 2.75557 10.8333 3.25173 11.0079V21.125C3.25269 21.8872 3.55589 22.6179 4.09484 23.1569C4.63379 23.6958 5.36448 23.999 6.12668 24H19.9268C20.689 23.999 21.4197 23.6958 21.9586 23.1569C22.4976 22.6179 22.8008 21.8872 22.8018 21.125V11.0078C23.2979 10.8332 23.7475 10.5473 24.1159 10.1719C24.4844 9.79658 24.7619 9.34177 24.9271 8.84244C25.1147 8.27696 25.0931 7.6297 24.8665 7.01986ZM18.1405 6.4533C18.1813 6.6841 18.2018 6.91804 18.2018 7.15241V7.75617C18.2032 8.05914 18.1448 8.35943 18.0299 8.63976C17.915 8.9201 17.7458 9.17497 17.532 9.38973C17.3183 9.60449 17.0643 9.7749 16.7845 9.89119C16.5047 10.0075 16.2047 10.0673 15.9017 10.0673C15.5988 10.0673 15.2988 10.0075 15.019 9.89119C14.7392 9.7749 14.4852 9.60449 14.2714 9.38973C14.0577 9.17497 13.8885 8.9201 13.7736 8.63976C13.6587 8.35943 13.6003 8.05914 13.6017 7.75617V2.14988H17.3811L18.1405 6.4533ZM7.85169 7.15241C7.85165 6.91795 7.87212 6.68393 7.91287 6.45303L8.67242 2.14988H12.4518V7.75617C12.4518 8.05821 12.3923 8.3573 12.2767 8.63635C12.1611 8.9154 11.9917 9.16896 11.7781 9.38253C11.5645 9.59611 11.311 9.76553 11.0319 9.88112C10.7529 9.99671 10.4538 10.0562 10.1517 10.0562C9.84968 10.0562 9.55059 9.99671 9.27154 9.88112C8.99249 9.76553 8.73893 9.59611 8.52535 9.38253C8.31178 9.16896 8.14236 8.9154 8.02677 8.63635C7.91118 8.3573 7.85169 8.05821 7.85169 7.75617V7.15241ZM2.21791 8.48056C2.11236 8.16251 2.12918 7.78608 2.26481 7.42071L4.08685 2.52448C4.12809 2.41472 4.20174 2.32011 4.29803 2.25321C4.39431 2.18631 4.50867 2.15029 4.62592 2.14994H7.50453L6.7803 6.25341C6.72799 6.55031 6.70169 6.85121 6.7017 7.15268V7.75617C6.70162 8.30263 6.50701 8.83122 6.15273 9.24728C5.79844 9.66334 5.30761 9.9397 4.76814 10.0269C4.22867 10.114 3.67579 10.0063 3.20851 9.72295C2.74123 9.43962 2.39007 8.9992 2.21791 8.48056ZM21.6518 21.125C21.6513 21.5823 21.4694 22.0208 21.146 22.3442C20.8226 22.6676 20.3841 22.8495 19.9268 22.85H6.12668C5.66933 22.8495 5.23086 22.6676 4.90746 22.3442C4.58407 22.0208 4.40217 21.5823 4.40167 21.125V11.2062C4.97115 11.206 5.53173 11.0648 6.03338 10.7953C6.53504 10.5257 6.96217 10.1362 7.27667 9.66144C7.59102 10.1363 8.01813 10.526 8.51982 10.7956C9.02151 11.0651 9.58217 11.2062 10.1517 11.2062C10.7212 11.2062 11.2819 11.0651 11.7836 10.7956C12.2853 10.526 12.7124 10.1363 13.0267 9.66144C13.3411 10.1363 13.7682 10.526 14.2699 10.7956C14.7716 11.0651 15.3322 11.2062 15.9017 11.2062C16.4713 11.2062 17.0319 11.0651 17.5336 10.7956C18.0353 10.526 18.4624 10.1363 18.7768 9.66144C19.0913 10.1362 19.5184 10.5257 20.0201 10.7953C20.5217 11.0648 21.0823 11.206 21.6518 11.2062V21.125ZM23.8355 8.48056C23.6634 8.9992 23.3122 9.43962 22.8449 9.72295C22.3777 10.0063 21.8248 10.114 21.2853 10.0269C20.7458 9.9397 20.255 9.66334 19.9007 9.24728C19.5464 8.83122 19.3518 8.30263 19.3517 7.75617V7.15241C19.3518 6.85094 19.3255 6.55004 19.2731 6.25314L18.5489 2.14988H21.4275C21.5447 2.15023 21.6591 2.18623 21.7554 2.2531C21.8517 2.31997 21.9253 2.41454 21.9666 2.52426L23.7882 7.42049C23.9243 7.78608 23.9411 8.16241 23.8355 8.48056Z" stroke="#989898" stroke-width="0.4" mask="url(#path-1-outside-1_19804_2775)"/>
<path d="M17.8332 15.0546L14.9882 14.4386L13.5229 11.9231C13.4723 11.8362 13.3998 11.764 13.3126 11.7139C13.2254 11.6638 13.1266 11.6374 13.026 11.6374C12.9254 11.6374 12.8266 11.6638 12.7394 11.7139C12.6522 11.764 12.5797 11.8362 12.5291 11.9231L11.0638 14.4386L8.21854 15.0546C8.12021 15.0758 8.02918 15.1225 7.95454 15.1899C7.87989 15.2574 7.82425 15.3432 7.79315 15.4389C7.76205 15.5346 7.75659 15.6367 7.77732 15.7351C7.79805 15.8336 7.84424 15.9249 7.91127 15.9999L9.85137 18.1709L9.55796 21.0672C9.54784 21.1673 9.56415 21.2682 9.60524 21.36C9.64634 21.4518 9.7108 21.5312 9.79217 21.5903C9.87355 21.6494 9.969 21.6861 10.069 21.6968C10.169 21.7075 10.2701 21.6917 10.3621 21.6512L13.026 20.4772L15.6899 21.6511C15.7819 21.6916 15.883 21.7074 15.983 21.6967C16.083 21.686 16.1784 21.6493 16.2598 21.5902C16.3412 21.5311 16.4056 21.4517 16.4467 21.3599C16.4878 21.2681 16.5041 21.1672 16.494 21.0671L16.2006 18.1709L18.1404 16C18.2074 15.925 18.2536 15.8337 18.2743 15.7353C18.295 15.6368 18.2896 15.5347 18.2585 15.439C18.2274 15.3433 18.1717 15.2575 18.0971 15.19C18.0225 15.1226 17.9315 15.0758 17.8332 15.0546ZM15.1744 17.5932C15.1212 17.6528 15.081 17.7228 15.0563 17.7987C15.0316 17.8746 15.023 17.9549 15.0309 18.0343L15.2502 20.2007L13.2578 19.3227C13.1847 19.2905 13.1058 19.2739 13.026 19.2739C12.9462 19.2739 12.8672 19.2905 12.7942 19.3227L10.8018 20.2006L11.0211 18.0343C11.029 17.9549 11.0204 17.8746 10.9957 17.7987C10.971 17.7228 10.9308 17.6528 10.8776 17.5932L9.42686 15.9698L11.5548 15.5091C11.6328 15.4922 11.7065 15.4592 11.7711 15.4123C11.8358 15.3653 11.8899 15.3055 11.9302 15.2365L13.026 13.3548L14.1218 15.2364C14.1621 15.3054 14.2162 15.3653 14.2808 15.4122C14.3455 15.4591 14.4191 15.4921 14.4972 15.509L16.6251 15.9698L15.1744 17.5932Z" stroke="#989898" stroke-width="0.4" mask="url(#path-1-outside-1_19804_2775)"/>
</svg>
