<svg width="116" height="116" viewBox="0 0 116 116" fill="none" xmlns="http://www.w3.org/2000/svg">
<path d="M114.513 82.143C110.553 71.6363 106.003 61.1663 101 51.0284C94.0361 36.927 86.131 23.3103 77.3382 10.2708C75.2005 7.10792 72.3197 4.51765 68.9483 2.727C65.5768 0.936357 61.8175 0 58 0C54.1825 0 50.4233 0.936357 47.0518 2.727C43.6804 4.51765 40.7995 7.10792 38.6619 10.2708C29.8691 23.3103 21.964 36.927 15.0003 51.0284C9.99735 61.1673 5.44726 71.6363 1.48683 82.1381C0.495851 84.7773 -0.00789026 87.5744 9.343e-05 90.3935C0.0215547 96.1171 2.12827 101.637 5.92587 105.919C9.72348 110.202 14.9516 112.953 20.6316 113.659C33.0271 115.214 45.5074 115.996 58 116C70.5849 115.998 83.1571 115.205 95.6425 113.626C99.1381 113.158 102.483 111.909 105.43 109.97C108.376 108.032 110.848 105.455 112.661 102.43C114.474 99.4046 115.582 96.0099 115.903 92.4977C116.223 88.9856 115.749 85.4463 114.513 82.143ZM94.4245 104.035C70.3245 107.078 45.938 107.089 21.8351 104.068C18.4909 103.658 15.4107 102.044 13.1709 99.5266C10.9311 97.0096 9.68534 93.7627 9.66675 90.3935C9.66023 88.7401 9.95285 87.0992 10.5305 85.55C14.3821 75.3405 18.8046 65.1639 23.6665 55.3039C30.4388 41.5946 38.1262 28.3566 46.6765 15.6798C47.9284 13.828 49.6153 12.3114 51.5895 11.263C53.5636 10.2147 55.7648 9.66645 58 9.66645C60.2353 9.66645 62.4365 10.2147 64.4106 11.263C66.3848 12.3114 68.0717 13.828 69.3236 15.6798C77.874 28.3569 85.5613 41.5952 92.3336 55.3049C97.1955 65.1649 101.618 75.3415 105.47 85.5558C106.189 87.4927 106.465 89.5664 106.276 91.6239C106.087 93.6814 105.438 95.6703 104.378 97.4439C103.318 99.2174 101.874 100.73 100.151 101.871C98.428 103.012 96.4711 103.751 94.4245 104.035Z" fill="#FF5A00"/>
<path d="M56.5921 33.9517C55.0914 33.9517 53.6521 34.4733 52.5909 35.4018C51.5298 36.3304 50.9336 37.5897 50.9336 38.9029V68.6102C50.9336 69.9233 51.5298 71.1827 52.5909 72.1112C53.6521 73.0398 55.0914 73.5614 56.5921 73.5614C58.0929 73.5614 59.5321 73.0398 60.5933 72.1112C61.6545 71.1827 62.2507 69.9233 62.2507 68.6102V38.9029C62.2507 37.5897 61.6545 36.3304 60.5933 35.4018C59.5321 34.4733 58.0929 33.9517 56.5921 33.9517Z" fill="#FF5A00"/>
<path d="M56.5921 76.3906C55.0914 76.3906 53.6521 76.8874 52.5909 77.7717C51.5298 78.6561 50.9336 79.8555 50.9336 81.1061V85.8215C50.9336 87.0721 51.5298 88.2715 52.5909 89.1558C53.6521 90.0402 55.0914 90.537 56.5921 90.537C58.0929 90.537 59.5321 90.0402 60.5933 89.1558C61.6545 88.2715 62.2507 87.0721 62.2507 85.8215V81.1061C62.2507 79.8555 61.6545 78.6561 60.5933 77.7717C59.5321 76.8874 58.0929 76.3906 56.5921 76.3906Z" fill="#FF5A00"/>
</svg>
