<svg width="60" height="60" viewBox="0 0 60 60" fill="none" xmlns="http://www.w3.org/2000/svg">
<circle cx="30" cy="30" r="30" fill="#00D95F"/>
<path d="M17 44L19.0106 36.5369C17.3891 33.6297 16.8739 30.2372 17.5596 26.9819C18.2453 23.7267 20.0858 20.8271 22.7435 18.8151C25.4011 16.8032 28.6976 15.814 32.028 16.0289C35.3584 16.2438 38.4993 17.6485 40.8745 19.9853C43.2496 22.322 44.6995 25.434 44.9582 28.7501C45.217 32.0663 44.2671 35.3643 42.283 38.0389C40.2989 40.7134 37.4136 42.5851 34.1565 43.3106C30.8995 44.0361 27.4892 43.5666 24.5515 41.9883L17 44ZM24.9156 39.1956L25.3826 39.4717C27.5105 40.7287 29.9958 41.2489 32.4513 40.9511C34.9067 40.6534 37.1944 39.5545 38.9578 37.8257C40.7212 36.0968 41.8613 33.8352 42.2003 31.3931C42.5394 28.9511 42.0584 26.4659 40.8323 24.3248C39.6062 22.1837 37.7039 20.5069 35.4218 19.5558C33.1397 18.6047 30.606 18.4327 28.2156 19.0666C25.8252 19.7005 23.7123 21.1047 22.2063 23.0604C20.7002 25.016 19.8855 27.4133 19.8892 29.8785C19.8872 31.9227 20.4544 33.9272 21.5277 35.6691L21.8206 36.1504L20.6966 40.3158L24.9156 39.1956Z" fill="white"/>
<path fill-rule="evenodd" clip-rule="evenodd" d="M36.6561 31.3139C36.3538 31.0802 35.9997 30.9157 35.621 30.833C35.2422 30.7502 34.8488 30.7514 34.4705 30.8364C33.9023 31.0626 33.5351 31.9171 33.1679 32.3444C33.0905 32.4468 32.9767 32.5186 32.848 32.5464C32.7192 32.5741 32.5843 32.5559 32.4685 32.4952C30.3882 31.7143 28.6444 30.2824 27.5204 28.4321C27.4245 28.3166 27.3791 28.17 27.3938 28.0231C27.4085 27.8762 27.4821 27.7405 27.5991 27.6446C28.0086 27.2561 28.3093 26.7749 28.4733 26.2455C28.5097 25.6616 28.3701 25.08 28.0711 24.57C27.84 23.855 27.4001 23.2184 26.8035 22.7353C26.4958 22.6027 26.1546 22.5582 25.821 22.6073C25.4875 22.6563 25.1759 22.7968 24.9239 23.0118C24.4863 23.3736 24.139 23.8248 23.9075 24.3322C23.676 24.8397 23.5663 25.3904 23.5863 25.9439C23.5877 26.2547 23.6288 26.5642 23.7087 26.8655C23.9117 27.5892 24.2239 28.2807 24.6354 28.918C24.9323 29.4061 25.2562 29.8787 25.6058 30.3338C26.7419 31.8283 28.17 33.0972 29.8109 34.0701C30.6343 34.5645 31.5143 34.9665 32.4336 35.2681C33.3885 35.6829 34.4429 35.8422 35.4847 35.7289C36.0782 35.6428 36.6406 35.4182 37.1224 35.0749C37.6041 34.7316 37.9904 34.2801 38.2472 33.7602C38.3982 33.4461 38.444 33.0949 38.3784 32.7549C38.221 32.0595 37.2506 31.649 36.6561 31.3139Z" fill="white"/>
</svg>
